<?xml version="1.0" standalone="no"?>
<!DOCTYPE svg PUBLIC "-//W3C//DTD SVG 20010904//EN"
 "http://www.w3.org/TR/2001/REC-SVG-20010904/DTD/svg10.dtd">
<svg version="1.0" xmlns="http://www.w3.org/2000/svg"
 width="576.000000pt" height="576.000000pt" viewBox="0 0 576.000000 576.000000"
 preserveAspectRatio="xMidYMid meet">
<metadata>
Created by potrace 1.14, written by Peter Selinger 2001-2017
</metadata>
<g transform="translate(0.000000,576.000000) scale(0.100000,-0.100000)"
fill="#000000" stroke="none">
<path d="M174 5733 c10 -50 22 -155 30 -258 8 -93 19 -146 36 -167 12 -16 20
-49 24 -108 4 -47 16 -155 27 -239 15 -116 18 -161 10 -178 -16 -36 -13 -56
13 -81 19 -17 26 -37 30 -85 12 -135 25 -300 35 -472 6 -99 16 -214 22 -255 6
-41 12 -124 13 -185 0 -60 5 -116 9 -122 4 -7 3 -21 -3 -32 -16 -32 -13 -89 6
-93 13 -2 17 -18 19 -73 2 -38 10 -98 18 -132 8 -34 13 -64 10 -67 -3 -3 0
-26 6 -51 6 -25 14 -67 17 -93 2 -26 14 -101 26 -167 23 -135 33 -496 14 -527
-14 -23 -2 -32 24 -18 30 16 34 8 35 -58 1 -31 10 -91 19 -132 11 -44 21 -141
25 -235 4 -88 10 -165 13 -170 3 -6 3 -31 -2 -58 -7 -45 5 -116 23 -145 5 -8
3 -19 -5 -29 -7 -9 -13 -40 -13 -73 0 -73 -26 -123 -72 -140 -42 -15 -61 -3
-44 29 7 12 17 21 23 21 13 0 37 30 38 46 0 16 -30 26 -44 15 -6 -5 -27 -12
-46 -16 -68 -15 -127 -70 -135 -126 -3 -25 -38 -68 -60 -75 -11 -4 -28 -16
-38 -28 -15 -17 -20 -18 -27 -6 -5 8 -6 19 -2 25 3 5 -1 4 -10 -3 -12 -10 -18
-9 -28 3 -17 21 4 45 39 45 31 1 46 12 90 68 l33 43 -25 25 c-24 24 -27 25
-50 9 -28 -18 -39 -38 -31 -58 8 -21 -72 -98 -109 -104 -17 -3 -33 -9 -35 -14
-2 -5 -12 -9 -23 -9 -28 0 -59 -35 -52 -59 6 -22 -21 -56 -36 -47 -6 4 -9 -83
-8 -216 l2 -222 30 -6 c17 -4 40 -12 52 -18 12 -7 24 -8 27 -3 12 18 55 18 72
0 16 -18 40 -17 29 1 -6 10 50 24 64 16 5 -4 12 -2 16 3 3 6 15 7 28 2 13 -5
30 -5 39 0 11 6 19 5 23 -1 4 -6 11 -7 17 -4 6 4 8 2 4 -4 -3 -6 -2 -13 4 -17
5 -3 10 -2 10 2 0 5 15 9 33 10 17 1 26 -1 19 -3 -6 -3 -10 -10 -6 -15 10 -17
48 -9 74 16 30 29 95 44 86 19 -3 -8 -1 -14 4 -14 5 0 8 -13 6 -29 -4 -38 17
-31 35 11 10 24 10 31 -1 38 -8 5 -11 19 -7 39 5 23 2 33 -11 41 -15 9 -16 11
-1 22 9 7 14 18 12 25 -3 8 -12 4 -26 -11 -12 -13 -28 -21 -34 -19 -7 3 -15
-2 -18 -10 -8 -20 -87 1 -83 23 3 11 13 14 37 12 19 -2 31 0 27 6 -3 5 8 25
24 43 16 19 40 48 54 64 22 25 27 28 36 15 5 -8 7 -24 3 -35 -11 -35 -8 -50 9
-50 23 0 26 -5 29 -50 1 -22 12 -58 23 -80 11 -22 19 -44 18 -48 -1 -4 3 -18
10 -30 7 -12 13 -24 14 -27 0 -3 4 -12 8 -22 4 -9 3 -32 -2 -52 -6 -21 -7 -36
-1 -36 24 0 4 -38 -34 -62 -46 -29 -60 -29 -33 1 20 23 12 46 -13 36 -9 -4
-20 -8 -26 -9 -5 -2 -17 -6 -25 -9 -25 -9 -70 -15 -70 -8 0 10 20 37 20 27 0
-5 8 -2 18 6 9 8 25 18 35 21 9 4 17 14 17 23 0 12 -5 14 -17 8 -10 -4 -31 -8
-48 -8 -25 -1 -30 3 -30 23 0 14 -6 26 -13 29 -7 2 -9 8 -6 14 3 5 -3 4 -15
-4 -12 -7 -19 -19 -16 -28 4 -8 3 -11 -1 -7 -4 3 -19 -2 -33 -12 -14 -10 -35
-21 -47 -25 -11 -3 -27 -17 -34 -31 -7 -14 -21 -27 -32 -31 -10 -3 -18 -10
-18 -15 0 -5 -9 -9 -20 -9 -24 0 -27 -25 -4 -38 14 -8 14 -10 -1 -25 -9 -10
-23 -17 -31 -17 -12 0 -12 4 2 25 9 14 12 25 6 25 -6 0 -8 10 -6 22 5 23 5 23
-5 1 -5 -12 -18 -24 -29 -27 -17 -6 -111 -106 -99 -106 3 0 24 7 47 15 39 14
44 14 55 -1 11 -16 14 -16 45 0 18 9 35 14 37 12 2 -2 -14 -22 -37 -45 -23
-23 -36 -41 -28 -41 10 0 9 -3 -2 -10 -12 -7 -12 -10 -1 -10 7 0 33 14 58 30
24 17 51 30 60 30 24 0 104 50 98 60 -3 5 3 14 14 19 26 14 31 14 25 -3 -9
-24 25 -27 46 -4 11 12 23 18 27 15 3 -4 1 -7 -5 -7 -7 0 -12 -7 -12 -16 0
-10 -18 -48 -39 -85 -22 -38 -37 -69 -33 -69 15 0 92 57 112 83 12 15 19 34
16 42 -3 9 0 15 8 15 7 0 33 13 57 30 54 36 73 37 106 4 19 -19 23 -28 14 -37
-6 -6 -11 -19 -11 -30 0 -10 -4 -15 -10 -12 -5 3 -10 0 -10 -8 0 -8 7 -18 16
-21 10 -4 13 -2 8 7 -5 9 -4 9 6 0 18 -16 20 -55 4 -71 -7 -7 -11 -19 -7 -28
7 -18 63 -49 81 -45 8 1 16 -7 19 -18 3 -12 9 -21 13 -21 17 0 60 43 58 57 -2
9 3 18 10 20 26 10 11 -38 -24 -72 l-36 -36 65 2 c48 2 64 5 60 15 -6 16 41
47 76 50 14 1 31 3 36 4 25 6 45 -1 45 -15 0 -8 3 -14 8 -14 23 4 24 -4 2 -21
l-25 -20 36 0 c29 0 38 5 47 25 6 14 18 25 27 25 19 0 19 -9 -2 -32 -14 -16
-14 -18 -1 -18 9 0 18 7 22 15 3 8 18 20 33 27 15 6 38 21 51 32 l22 19 0 -24
c0 -13 -9 -30 -20 -37 -11 -7 -20 -17 -20 -23 0 -5 10 -3 22 5 30 21 92 22 84
1 -4 -13 8 -15 79 -15 46 0 87 5 90 10 3 6 21 10 38 9 31 -1 31 -1 7 -9 -14
-4 338 -8 782 -9 655 0 808 2 808 13 0 19 40 52 88 72 50 22 50 39 -1 39 -39
0 -47 14 -21 35 8 8 19 21 24 31 8 14 6 16 -12 11 -16 -4 -10 6 22 37 26 26
56 44 73 46 17 2 42 15 56 29 17 17 38 26 58 26 22 0 38 8 51 25 11 14 25 25
31 25 6 0 11 4 11 9 0 5 3 17 7 26 5 15 3 16 -15 6 -12 -7 -22 -17 -22 -25 0
-8 -15 -13 -45 -13 -25 -1 -52 -7 -60 -13 -9 -7 -19 -10 -23 -6 -17 18 105 79
148 74 14 -1 30 1 37 5 6 4 25 -1 42 -10 29 -17 32 -17 68 2 21 11 52 32 69
47 28 25 33 26 45 12 10 -13 10 -17 -2 -25 -8 -5 -10 -9 -5 -9 5 0 18 8 29 17
15 13 21 15 24 6 3 -7 11 -13 19 -13 8 0 14 6 14 13 0 8 4 7 10 -3 5 -8 10
-10 10 -5 0 6 14 11 30 12 54 4 69 7 64 14 -6 10 23 19 61 19 18 0 36 6 38 13
4 9 7 9 15 -1 5 -8 26 -12 56 -11 31 2 52 -2 62 -13 14 -14 13 -17 -18 -28
-24 -9 -28 -14 -15 -17 18 -5 23 -38 7 -48 -17 -10 -11 -31 9 -31 12 0 17 6
14 17 -4 13 3 16 39 15 52 0 101 11 93 23 -4 8 16 21 31 21 3 0 3 -15 1 -33
-2 -24 -11 -36 -33 -46 -16 -8 -35 -21 -43 -29 -16 -16 -62 -35 -68 -28 -3 2
-6 12 -7 21 -4 24 -25 34 -56 25 -28 -8 -67 -29 -86 -45 -6 -6 -46 -28 -88
-50 -41 -21 -78 -46 -81 -56 -3 -10 -19 -19 -38 -22 -68 -10 -135 -46 -122
-67 3 -6 26 -2 56 11 32 12 49 15 47 8 -2 -7 -27 -21 -56 -32 -29 -11 -52 -26
-52 -33 0 -18 3 -18 53 7 51 25 97 40 97 31 0 -13 -140 -102 -160 -102 -22 0
-26 20 -8 38 7 7 10 12 8 12 -77 8 -108 6 -128 -6 -12 -8 -22 -20 -22 -28 0
-7 -12 -19 -27 -27 l-28 -14 48 -3 c27 -2 54 1 60 6 7 5 24 12 40 16 20 5 27
3 27 -8 0 -20 126 -19 157 1 15 10 27 12 38 5 12 -6 32 -1 71 20 35 19 61 27
74 23 13 -4 31 0 48 12 28 18 99 53 110 53 3 0 -9 -16 -28 -35 -19 -20 -44
-35 -56 -35 -27 0 -74 -20 -74 -31 0 -16 99 -22 417 -26 l331 -4 29 27 c34 32
103 68 103 55 0 -6 11 1 24 14 16 16 31 22 42 18 16 -6 16 -7 0 -18 -21 -16
-20 -21 5 -56 19 -27 19 -29 2 -29 -34 0 -65 12 -53 20 7 4 10 13 6 19 -9 14
-48 -4 -64 -30 -12 -18 -8 -19 103 -19 74 0 127 5 148 13 40 17 373 18 370 1
-1 -5 14 -11 33 -12 l34 -3 0 481 0 481 -37 -6 c-21 -4 -45 -9 -55 -11 -9 -3
-19 -1 -22 4 -3 5 21 15 54 21 47 9 60 16 60 30 0 16 -6 18 -46 13 -37 -4 -46
-2 -42 9 3 8 23 18 46 23 30 6 42 14 42 27 0 22 -18 28 -95 30 -55 2 -178 -15
-197 -27 -19 -12 -5 -24 29 -24 35 0 36 0 18 -20 -18 -20 -62 -29 -50 -10 3 5
-7 12 -22 15 -15 3 -43 10 -62 15 -21 6 -39 6 -46 0 -13 -11 -29 -1 -38 23 -3
9 -15 17 -26 17 -11 0 -32 11 -48 23 -32 27 -134 77 -157 77 -24 0 -28 18 -5
25 12 4 37 18 57 32 45 30 68 27 212 -21 184 -60 203 -65 318 -70 l112 -6 0
25 c0 25 -1 25 -92 25 -124 0 -257 24 -402 71 -33 10 -70 19 -83 19 -27 0 -28
3 -7 35 15 23 15 25 0 25 -36 0 -3 19 42 25 26 3 69 10 95 16 37 7 54 6 77 -6
54 -28 192 -55 283 -55 l87 0 0 46 c0 35 -5 50 -22 65 -13 10 -29 18 -36 19
-23 0 -3 18 28 25 39 9 43 51 6 61 -16 4 -22 11 -19 23 2 9 -4 28 -15 41 -26
32 -81 33 -119 2 -50 -40 -72 -47 -89 -30 -13 13 -14 20 -4 38 10 18 9 25 -9
41 -24 23 -26 38 -8 64 13 16 20 17 93 7 43 -6 105 -14 137 -17 l57 -6 0 77
c0 68 -2 75 -15 64 -12 -10 -44 -11 -131 -6 l-116 6 -55 58 c-40 41 -55 64
-54 81 l3 23 -34 -25 c-26 -20 -50 -27 -108 -32 l-75 -7 -18 31 c-25 43 -59
58 -154 66 -46 4 -83 11 -83 16 0 5 15 16 33 25 17 9 62 45 100 80 37 35 85
76 107 90 22 15 40 28 40 29 0 7 -96 -26 -116 -40 -12 -8 -43 -34 -68 -59 -25
-25 -67 -56 -93 -70 -27 -14 -71 -51 -100 -84 -30 -34 -63 -62 -75 -64 -13 -2
-23 -9 -23 -16 0 -8 -9 -20 -19 -28 -11 -8 -21 -20 -22 -27 -5 -39 -59 -183
-71 -190 -18 -11 -17 -36 2 -43 8 -4 13 -10 10 -14 -2 -4 4 -18 15 -30 26 -29
27 -63 3 -56 -10 2 -67 8 -128 11 -60 3 -128 8 -150 10 -22 2 -110 9 -195 15
-85 6 -162 13 -170 16 -8 3 -37 8 -65 11 -27 3 -52 7 -55 9 -10 10 27 24 62
24 21 0 57 6 80 14 24 8 97 29 163 46 158 42 242 69 287 91 l36 18 7 88 c5 58
3 115 -5 166 -7 42 -13 107 -13 143 -1 65 0 66 34 84 47 25 70 34 94 34 14 1
20 8 21 26 1 49 3 52 28 46 28 -7 38 1 26 23 -6 13 -4 17 12 18 29 3 34 11 19
35 -12 19 -11 23 10 39 18 14 21 20 11 31 -8 10 -9 24 -2 44 5 16 14 62 20
103 6 41 15 81 22 88 8 9 7 17 -2 28 -10 12 -10 19 -2 27 18 18 15 28 -14 38
-21 8 -25 15 -22 42 2 28 -1 34 -19 36 -13 2 -23 10 -23 18 0 8 -5 14 -11 14
-5 0 -25 12 -43 26 -33 27 -33 27 -21 73 12 47 38 71 80 71 19 0 60 -20 41
-20 -5 0 -3 -7 4 -16 12 -13 38 -14 194 -9 235 8 253 10 272 30 13 12 26 15
58 9 52 -8 59 -12 51 -33 -4 -9 -13 -50 -21 -91 -12 -59 -12 -91 -4 -155 15
-111 56 -239 86 -267 13 -13 24 -30 24 -39 0 -9 32 -47 71 -84 55 -51 68 -69
58 -76 -8 -5 -21 -9 -30 -9 -26 0 -149 -40 -211 -69 -61 -27 -82 -50 -25 -27
36 16 186 41 292 51 66 5 73 4 118 -24 37 -24 47 -37 48 -58 1 -16 5 -39 9
-53 5 -17 8 3 8 60 l1 85 -71 35 c-40 19 -91 51 -114 70 -23 19 -58 48 -78 63
-20 15 -36 35 -36 43 0 8 -14 44 -30 80 -50 106 -77 346 -46 405 7 15 26 73
41 130 29 110 39 134 98 240 35 63 120 153 200 213 32 24 37 34 37 68 l0 40
-67 -59 c-127 -110 -197 -188 -238 -263 -22 -40 -46 -79 -53 -87 -11 -10 -83
-13 -350 -13 -185 0 -499 -5 -697 -11 -198 -6 -380 -9 -405 -7 l-45 3 43 47
c66 71 199 339 222 448 27 121 40 278 40 478 l0 173 -35 73 c-19 41 -35 77
-35 81 0 4 11 16 25 27 14 11 25 28 25 38 0 9 7 23 15 30 9 7 13 21 9 35 -4
16 1 26 21 39 25 16 25 19 11 35 -23 25 -20 40 9 51 28 11 33 28 10 36 -21 9
-19 38 6 59 l20 19 -23 17 -23 18 24 25 24 26 -21 23 c-13 14 -22 36 -22 55 0
18 -4 32 -10 32 -33 0 10 86 47 94 46 10 123 10 132 0 9 -9 -6 -146 -34 -305
-8 -47 -15 -100 -15 -117 0 -32 0 -32 20 -12 15 15 25 52 40 147 11 71 22 146
26 168 9 57 36 114 57 121 11 3 73 6 140 5 74 0 116 4 111 9 -11 11 -278 29
-462 31 -118 1 -136 3 -150 20 -9 10 -22 19 -29 19 -8 0 -13 12 -13 30 0 31
-17 39 -37 19 -14 -14 -73 15 -73 37 0 20 -27 29 -45 14 -13 -11 -18 -10 -30
6 -14 18 -16 18 -26 2 -11 -20 -49 -24 -65 -8 -8 8 -15 6 -24 -5 -13 -16 -50
-21 -50 -7 0 4 5 13 10 18 8 8 6 15 -5 24 -8 7 -15 18 -15 25 0 7 -16 32 -35
55 l-35 42 20 28 c20 29 56 47 68 36 3 -4 -2 -22 -11 -41 -35 -74 -17 -72 44
4 24 30 54 67 67 83 l23 28 -180 0 -180 0 9 -31 c8 -28 3 -41 -60 -137 -39
-58 -70 -111 -70 -119 0 -26 17 -12 44 35 15 26 42 66 61 90 19 24 39 51 45
60 9 15 14 12 43 -23 17 -22 46 -53 63 -70 38 -37 48 -61 27 -69 -12 -5 -14
-15 -10 -43 5 -31 2 -40 -20 -60 -14 -14 -36 -29 -49 -34 -17 -6 -24 -16 -24
-34 0 -18 -5 -25 -20 -25 -16 0 -20 -7 -20 -30 0 -16 -4 -30 -8 -30 -13 0 -62
-79 -62 -99 0 -9 -5 -22 -11 -28 -7 -7 1 -12 28 -16 21 -4 43 -15 50 -25 6
-10 40 -29 75 -41 106 -38 207 -99 265 -160 29 -31 73 -76 97 -101 45 -45 69
-90 113 -210 73 -195 73 -197 72 -308 -1 -189 -36 -431 -74 -513 -13 -30 -25
-59 -25 -66 0 -33 -107 -221 -153 -270 -72 -76 -244 -190 -357 -236 -102 -42
-219 -77 -260 -77 -24 0 -80 -47 -80 -67 0 -14 -91 -69 -153 -92 -101 -37
-208 -21 -282 44 l-40 35 103 -2 c103 -2 136 8 109 30 -7 6 -60 14 -118 17
-57 3 -122 10 -144 16 -62 16 -245 90 -298 121 -26 15 -52 28 -56 28 -5 0 -47
34 -94 75 -87 77 -129 134 -142 195 -4 19 -20 61 -36 93 -54 107 -92 227 -72
227 4 0 23 -32 42 -70 18 -38 52 -88 74 -111 86 -85 228 -142 357 -143 67 -1
82 3 138 33 69 37 148 118 159 160 3 14 14 38 25 53 10 15 26 62 34 105 8 43
19 97 24 121 12 50 13 162 3 162 -164 5 -570 21 -660 26 l-122 7 -3 56 c-3 54
-4 56 -38 67 -29 10 -37 9 -47 -5 -11 -14 -12 -12 -13 14 0 47 11 79 21 63 6
-8 9 6 8 37 -2 61 17 134 36 141 8 3 17 20 21 37 12 56 51 121 128 214 89 106
209 193 319 230 39 13 83 33 97 43 15 11 30 17 33 14 8 -8 77 24 77 35 0 6 -3
11 -7 11 -17 0 -84 -27 -95 -38 -11 -11 -36 -5 -55 14 -7 7 -18 14 -25 17 -9
3 -7 9 7 20 l20 16 -20 15 c-17 13 -18 18 -7 36 11 19 11 25 -4 41 -13 15 -14
22 -5 33 7 8 10 24 6 36 -3 11 -3 20 2 20 5 0 13 10 18 22 6 13 17 24 25 25
93 11 86 5 120 108 17 52 35 95 39 95 3 0 34 -19 68 -42 159 -110 173 -128 99
-128 -24 0 -51 -3 -60 -6 -33 -13 -14 -24 40 -24 76 0 244 21 244 31 0 12 -65
22 -97 15 -25 -6 -31 -3 -41 19 -6 14 -17 25 -24 25 -6 0 -22 10 -35 22 -19
18 -21 24 -10 37 7 9 24 41 37 71 38 87 40 88 101 43 95 -70 115 -65 48 11
-22 25 -45 62 -50 81 l-10 35 -199 0 -198 0 -12 -35 c-13 -39 -24 -42 -66 -20
-16 8 -38 15 -49 15 -11 0 -40 9 -64 20 -24 11 -55 20 -70 20 l-26 0 23 -18
22 -17 -20 -64 c-12 -35 -19 -65 -16 -68 11 -11 25 10 36 56 14 59 31 78 51
58 8 -7 30 -19 49 -26 61 -21 110 -61 110 -90 1 -24 2 -24 14 -8 15 19 66 23
66 5 0 -7 -6 -30 -14 -53 -8 -22 -17 -53 -21 -68 -8 -38 -48 -56 -73 -34 -10
10 -31 17 -45 17 -15 0 -35 4 -45 9 -9 5 -34 17 -54 26 -24 10 -38 23 -38 34
0 10 -7 24 -15 31 -13 11 -20 9 -41 -11 -25 -23 -26 -23 -39 -5 -8 10 -20 16
-28 13 -8 -3 -27 1 -42 9 -15 8 -33 14 -40 14 -12 0 -25 81 -25 156 l0 34
-120 0 -120 0 6 -27 c3 -16 10 -44 14 -63 5 -19 10 -66 12 -105 3 -67 2 -70
-19 -68 -15 2 -23 -3 -23 -12 0 -9 -7 -18 -15 -21 -8 -4 -15 -13 -15 -20 0 -8
-7 -17 -16 -21 -12 -4 -14 -14 -10 -35 5 -24 2 -31 -14 -35 -11 -3 -20 -10
-20 -17 0 -6 -9 -17 -20 -24 -11 -7 -20 -22 -20 -35 0 -13 -4 -27 -9 -33 -5
-5 -12 -59 -16 -120 -4 -92 -3 -113 10 -124 8 -7 15 -27 15 -45 0 -18 6 -38
14 -45 8 -6 16 -21 18 -33 2 -14 11 -23 26 -25 20 -3 23 -8 17 -29 -4 -19 -1
-26 15 -30 14 -4 20 -14 20 -34 0 -22 5 -29 20 -29 11 0 20 -7 20 -15 0 -9 8
-19 18 -22 35 -13 41 -35 22 -73 -23 -47 -55 -148 -76 -245 -14 -61 -18 -127
-18 -280 -1 -172 2 -215 22 -305 30 -139 54 -200 112 -291 27 -42 60 -99 73
-128 16 -34 26 -48 33 -41 7 7 16 4 29 -10 18 -20 18 -20 -13 -20 -17 0 -34 5
-38 11 -4 7 -9 7 -13 1 -12 -18 -66 -40 -131 -53 -42 -8 -73 -21 -88 -36 l-23
-24 -92 46 c-50 25 -98 45 -106 45 -52 0 179 -144 274 -170 57 -16 162 -72
185 -99 37 -43 273 -182 350 -206 14 -4 43 -15 65 -25 22 -10 90 -39 150 -64
150 -63 140 -54 139 -120 -1 -44 1 -54 11 -46 17 14 26 48 14 55 -4 3 0 21 11
39 17 32 18 35 2 49 -9 8 -28 18 -42 22 -49 14 -90 37 -90 51 0 14 -18 20 -86
27 -22 3 -87 27 -145 55 -57 27 -126 57 -154 67 -52 17 -115 59 -115 76 0 5
10 14 23 20 12 5 27 21 34 36 11 22 10 25 -5 20 -113 -33 -110 -32 -139 -9
-16 12 -56 36 -90 52 -35 16 -63 31 -63 34 0 3 64 4 143 4 78 -1 165 0 192 2
34 2 61 -2 83 -14 36 -18 34 -36 -2 -36 -27 0 -51 -24 -41 -40 7 -12 67 -5
102 12 17 8 33 8 62 -2 31 -10 40 -19 45 -43 4 -20 35 -59 94 -117 79 -79 93
-89 156 -108 38 -12 93 -22 122 -22 75 0 83 -24 21 -68 l-32 -24 55 5 c102 10
204 29 240 44 69 29 167 51 280 63 120 12 204 30 280 60 25 9 79 27 120 40 41
12 108 40 149 61 66 35 295 112 376 126 17 3 39 12 50 19 11 8 35 14 54 14
l34 0 -19 -21 c-14 -16 -15 -23 -6 -26 34 -12 -15 -53 -63 -53 -11 0 -28 -9
-37 -19 -16 -19 -48 -125 -48 -160 0 -10 -17 -32 -38 -48 -34 -27 -41 -41 -57
-108 -19 -81 -16 -97 27 -157 10 -14 9 -21 -6 -36 -11 -13 -14 -22 -6 -27 5
-3 8 -10 5 -14 -2 -5 6 -30 19 -57 23 -48 37 -59 103 -84 l31 -12 6 -106 c10
-196 8 -325 -6 -334 -7 -4 -65 -24 -128 -43 -63 -19 -142 -44 -175 -55 -88
-29 -180 -47 -270 -55 -176 -15 -259 -32 -378 -79 -67 -27 -162 -55 -220 -66
-124 -24 -328 -87 -344 -107 -15 -20 -6 -43 18 -43 27 0 24 -21 -10 -68 -40
-54 -95 -174 -112 -240 l-13 -53 -46 3 c-25 2 -51 8 -59 13 -9 5 -16 5 -18 -1
-2 -6 -19 -8 -38 -6 -20 2 -41 0 -48 -6 -20 -17 -122 -25 -147 -12 -21 11 -21
16 -15 93 4 45 9 84 11 87 3 2 76 5 162 5 200 2 235 6 149 16 -37 4 -74 13
-82 19 -7 6 -24 10 -37 9 -42 -4 -58 1 -52 15 3 8 -4 16 -18 19 l-22 6 20 23
c12 13 38 51 58 86 42 70 59 76 124 43 49 -25 127 -37 137 -21 9 15 -23 50
-40 44 -7 -3 -35 4 -62 14 -28 12 -84 23 -133 26 -80 6 -93 10 -226 76 -77 39
-151 70 -165 70 -19 0 -14 -6 26 -26 28 -14 57 -31 65 -38 8 -7 34 -24 58 -36
27 -15 39 -27 33 -33 -7 -7 -16 -6 -26 3 -12 10 -18 10 -31 -1 -11 -9 -18 -9
-22 -2 -5 8 -13 7 -26 -3 -17 -12 -18 -14 -3 -14 9 0 17 -4 17 -8 0 -5 19 -9
42 -10 23 -1 49 -8 56 -16 12 -12 6 -22 -37 -70 -28 -31 -51 -60 -51 -64 0 -4
-9 -13 -20 -19 -17 -11 -18 -10 -13 5 6 15 5 15 -10 3 -11 -9 -17 -10 -17 -2
0 15 -32 14 -53 -1 -9 -7 -19 -29 -23 -48 -4 -26 -3 -31 5 -20 8 12 13 12 23
2 9 -9 9 -12 -3 -12 -8 0 -24 -7 -35 -16 -10 -8 -13 -12 -5 -8 9 4 12 2 9 -7
-7 -20 -37 -23 -44 -4 -4 9 -2 26 4 38 16 33 21 67 11 67 -15 0 -10 30 6 36
20 8 20 44 0 44 -8 0 -15 -4 -15 -10 0 -5 -11 -12 -25 -16 -19 -5 -25 -13 -25
-35 0 -16 -9 -38 -20 -49 -11 -11 -15 -20 -10 -20 6 0 10 -7 10 -15 0 -8 -8
-15 -17 -15 -15 0 -15 -2 -4 -9 8 -5 21 -7 29 -3 10 3 13 1 8 -6 -4 -7 -14
-12 -22 -12 -8 0 -14 -4 -14 -9 0 -5 -8 -12 -17 -14 -14 -4 -12 -5 5 -6 23 -1
32 -21 10 -21 -10 0 -10 -2 0 -9 10 -6 10 -10 -3 -21 -13 -10 -15 -9 -16 6 -1
11 -1 22 -1 25 1 4 -14 2 -33 -4 -19 -6 -35 -16 -35 -24 0 -7 -9 -13 -20 -13
-11 0 -20 -5 -20 -11 0 -5 6 -7 12 -3 9 5 9 3 -1 -9 -7 -9 -18 -14 -24 -10 -7
4 -8 0 -3 -12 5 -14 4 -16 -8 -6 -7 6 -21 9 -30 5 -9 -3 -30 -1 -46 6 -30 13
-35 27 -30 90 4 60 77 264 113 314 22 31 81 88 142 136 30 24 47 30 86 30 27
0 49 3 49 8 0 4 -30 13 -67 20 -75 14 -150 40 -293 100 l-95 40 -23 102 c-18
83 -30 111 -57 144 -41 51 -55 85 -55 138 0 35 4 41 30 51 17 6 32 19 35 28 3
9 15 19 25 22 12 3 20 14 20 25 0 12 4 23 9 26 14 9 2 98 -15 117 -14 15 -14
20 0 48 19 35 21 83 5 114 -16 30 -60 66 -81 67 -12 0 -18 8 -18 24 0 41 -17
73 -54 101 -31 23 -45 27 -117 28 l-81 2 -25 70 c-13 39 -28 83 -33 98 -5 16
-14 35 -20 42 -6 7 -35 83 -65 169 -30 86 -62 170 -70 186 -20 38 -20 64 0 56
13 -5 14 -2 4 17 -18 32 -31 38 -51 20 -24 -21 -23 -40 4 -83 12 -19 34 -80
49 -135 15 -55 41 -138 58 -185 64 -175 65 -180 29 -180 -10 0 -18 -5 -18 -10
0 -6 -11 -15 -25 -20 -14 -5 -25 -16 -25 -25 0 -8 -6 -15 -12 -15 -7 0 -22
-18 -32 -40 -19 -40 -19 -41 0 -55 19 -14 19 -14 -3 -29 -16 -12 -21 -26 -21
-65 -1 -41 2 -50 20 -54 13 -4 17 -10 12 -18 -4 -7 -9 -34 -11 -61 -3 -37 0
-48 11 -48 10 0 14 -9 13 -27 -2 -22 3 -29 22 -31 20 -3 22 -8 18 -35 -3 -20
1 -36 10 -42 11 -8 1 -20 -49 -55 -90 -65 -90 -65 -100 -46 -7 12 -13 14 -29
6 -24 -14 -26 -42 -1 -33 37 14 -10 -27 -60 -52 -60 -30 -62 -30 -55 -3 4 12
2 27 -2 32 -16 21 -38 172 -46 316 -3 47 -7 101 -11 120 -3 20 0 52 8 75 13
36 12 44 -3 71 -23 41 -46 159 -59 296 -6 61 -12 114 -15 117 -2 4 -6 35 -9
70 -3 34 -8 65 -10 69 -3 4 -7 46 -11 92 -3 47 -10 115 -15 152 -6 36 -7 73
-4 81 3 8 0 34 -6 57 -18 68 -28 1009 -17 1595 3 171 9 260 21 310 26 115 26
115 -44 115 -64 0 -65 -1 -50 -29 6 -12 6 -30 0 -52 -6 -19 -13 -158 -15 -309
-3 -151 -10 -312 -16 -356 -5 -45 -7 -88 -4 -95 2 -8 6 -147 9 -309 2 -177 9
-306 15 -323 15 -39 22 -151 27 -427 2 -129 7 -256 10 -282 5 -40 3 -47 -14
-52 -18 -6 -18 -8 7 -59 22 -45 26 -67 28 -167 2 -63 8 -126 13 -140 11 -27
20 -96 45 -325 8 -77 19 -165 25 -195 22 -128 30 -190 30 -251 0 -35 7 -102
15 -149 8 -47 19 -143 25 -215 6 -71 15 -161 20 -200 5 -38 13 -158 19 -265 6
-107 13 -213 16 -235 2 -22 7 -65 10 -95 4 -30 15 -102 26 -160 28 -154 28
-155 21 -167 -15 -25 -52 34 -52 82 0 14 -4 25 -9 25 -4 0 -7 11 -6 25 2 14 0
25 -5 25 -5 0 -7 10 -5 23 12 72 12 79 -1 84 -8 3 -14 10 -13 17 5 45 -3 84
-18 89 -10 4 -28 14 -41 23 -13 10 -22 13 -21 8 4 -21 -2 -23 -20 -5 -22 22
-30 58 -37 172 l-6 86 40 44 c28 30 38 47 31 54 -7 7 -18 2 -33 -16 l-22 -26
-17 41 c-13 32 -15 52 -8 95 6 39 4 73 -6 120 -42 194 -65 315 -73 391 -5 47
-14 114 -19 150 -6 36 -17 112 -25 170 -9 58 -18 116 -21 130 -5 25 -16 104
-35 255 -6 44 -14 130 -19 192 -5 61 -12 116 -15 121 -3 6 -9 95 -12 198 -4
131 -12 217 -26 279 -25 115 -47 307 -48 410 0 44 -7 107 -15 140 -12 49 -12
88 -4 220 11 153 9 201 -12 360 -21 166 -22 180 -6 193 25 21 48 -11 46 -66
-1 -26 4 -60 10 -77 7 -16 14 -77 15 -135 3 -94 28 -245 42 -259 15 -15 34 39
36 98 0 36 2 80 2 96 1 17 -2 37 -6 46 -5 11 0 26 13 43 11 14 20 34 20 43 0
10 0 52 0 93 -1 271 18 705 35 773 l6 27 -80 0 -81 0 -3 -37 c-4 -51 -24 -53
-32 -3 l-6 40 -53 0 -53 0 3 -72 c6 -145 1 -218 -17 -218 -12 0 -28 91 -34
195 -2 50 -5 91 -5 93 -1 1 -26 2 -57 2 -55 0 -56 0 -50 -27z m290 -160 c-11
-45 -24 -51 -24 -10 0 26 4 37 15 37 12 0 14 -7 9 -27z m-4 -117 c11 -30 -4
-92 -25 -100 -12 -4 -15 4 -15 37 0 80 21 113 40 63z m3747 -182 c-3 -3 -12
-4 -19 -1 -8 3 -5 6 6 6 11 1 17 -2 13 -5z m-3767 -28 c0 -11 -19 -15 -25 -6
-3 5 1 10 9 10 9 0 16 -2 16 -4z m2018 -1203 c244 -6 272 -8 272 -23 0 -9 -7
-59 -16 -111 -12 -72 -23 -105 -47 -141 -31 -46 -107 -101 -159 -113 -14 -4
-34 -15 -44 -26 -20 -23 -37 -24 -67 -5 -12 8 -42 17 -67 21 -52 9 -124 57
-171 116 -39 49 -66 134 -71 219 -3 64 -3 64 27 71 17 4 39 5 50 3 11 -2 143
-7 293 -11z m-469 -158 c0 -17 -2 -16 -14 7 -15 26 -21 77 -16 128 3 25 29
-96 30 -135z m230 -649 c16 -20 -3 -32 -71 -43 -40 -7 -74 -6 -115 2 l-58 13
35 15 c59 25 63 25 131 26 45 1 70 -3 78 -13z m1521 -75 c0 -11 -24 -21 -53
-22 -15 -1 -10 -4 13 -10 41 -10 153 -1 144 12 -3 5 -20 9 -39 9 -19 0 -36 4
-40 10 -3 5 98 9 270 8 151 0 275 -2 275 -4 0 -2 -19 -8 -42 -15 -24 -6 -55
-19 -69 -30 -14 -10 -48 -26 -75 -35 -27 -9 -67 -29 -89 -44 -69 -47 -126 -72
-151 -66 -15 4 -21 11 -18 20 10 26 -139 91 -271 118 -15 4 -6 11 35 30 55 26
110 36 110 19z m-119 -111 c51 -11 110 -29 129 -39 19 -10 50 -26 68 -36 19
-9 30 -21 25 -25 -10 -10 -122 -38 -121 -31 2 25 -23 61 -42 61 -5 0 -16 -12
-24 -27 -21 -41 -56 -74 -69 -66 -17 10 -157 20 -157 10 0 -4 -4 -5 -10 -2 -9
6 -12 0 -14 -35 -1 -8 -14 -17 -31 -21 -23 -4 -36 0 -57 20 -16 13 -28 28 -28
31 0 4 14 22 31 41 17 19 39 50 49 69 13 26 29 38 66 51 66 22 76 22 185 -1z
m-371 -90 c0 -5 -5 -10 -11 -10 -5 0 -7 5 -4 10 3 6 8 10 11 10 2 0 4 -4 4
-10z m-485 -40 c3 -5 1 -10 -4 -10 -6 0 -11 5 -11 10 0 6 2 10 4 10 3 0 8 -4
11 -10z m935 -5 c10 -12 7 -17 -14 -26 -32 -15 -41 -8 -26 20 13 25 23 26 40
6z m-903 -31 c-9 -9 -28 6 -21 18 4 6 10 6 17 -1 6 -6 8 -13 4 -17z m38 -4 c3
-5 -1 -10 -10 -10 -9 0 -13 5 -10 10 3 6 8 10 10 10 2 0 7 -4 10 -10z m65 -20
c0 -5 -6 -10 -14 -10 -8 0 -18 5 -21 10 -3 6 3 10 14 10 12 0 21 -4 21 -10z
m40 0 c0 -5 -7 -10 -15 -10 -8 0 -15 5 -15 10 0 6 7 10 15 10 8 0 15 -4 15
-10z m127 4 c-3 -3 -12 -4 -19 -1 -8 3 -5 6 6 6 11 1 17 -2 13 -5z m206 -38
c4 -10 -7 -20 -34 -30 -62 -25 -74 -22 -49 14 23 33 73 42 83 16z m-153 -41
c16 -20 14 -21 -37 -30 -44 -7 -49 -2 -37 29 8 21 57 21 74 1z m-1830 -506
c-63 -55 -95 -77 -125 -89 l-30 -11 30 30 c31 31 132 98 150 100 6 0 -6 -14
-25 -30z m188 -57 c29 -4 28 -16 -4 -41 -24 -19 -28 -19 -55 -6 -15 8 -34 15
-42 15 -8 0 -20 7 -27 15 -18 21 -1 37 53 51 39 9 42 9 47 -10 3 -12 16 -22
28 -24z m184 -131 c53 -46 78 -104 77 -177 -1 -32 -7 -62 -13 -66 -8 -6 -7
-11 3 -17 11 -7 7 -15 -20 -40 l-33 -31 21 -21 c17 -18 24 -19 43 -9 16 9 20
18 16 35 -8 30 16 49 51 41 51 -12 113 -41 113 -52 0 -18 -26 -36 -47 -32 -13
2 -19 -4 -21 -22 -7 -49 -95 -150 -130 -150 -21 0 -43 33 -38 55 4 16 1 24
-12 27 -14 4 -21 23 -31 79 -8 40 -17 80 -22 89 -19 35 -62 150 -80 214 -11
38 -26 78 -34 90 -8 11 -15 23 -15 27 0 3 23 20 51 38 28 19 55 45 62 60 10
24 12 20 17 -40 5 -60 8 -68 42 -98z m-543 37 c-4 -24 -8 -68 -9 -99 0 -62 -8
-73 -77 -108 -28 -14 -44 -17 -48 -10 -4 6 -9 46 -11 89 l-4 79 35 26 c33 26
58 26 53 1 -2 -6 2 -13 7 -14 6 -1 10 10 10 26 0 27 19 51 41 52 8 0 9 -13 3
-42z m295 -53 c21 -44 21 -101 0 -109 -9 -3 -20 -4 -24 -1 -5 3 -7 -4 -5 -16
6 -28 -5 -46 -16 -28 -4 7 -4 18 0 24 9 11 -24 72 -36 67 -13 -5 -32 -70 -26
-91 3 -12 8 -19 12 -17 3 2 15 -13 25 -35 18 -37 20 -38 36 -22 9 10 15 24 12
31 -3 8 1 10 12 6 11 -4 16 -1 16 11 0 11 -5 15 -15 12 -12 -5 -12 -2 -3 18
14 32 38 32 38 1 0 -14 13 -53 29 -88 42 -93 51 -125 51 -183 0 -29 7 -70 16
-90 8 -21 22 -70 29 -109 8 -39 21 -100 29 -136 17 -73 23 -180 12 -198 -4 -7
-30 -12 -60 -12 -41 0 -62 6 -91 26 -52 35 -67 52 -59 66 5 8 2 9 -9 5 -10 -4
-27 -3 -40 2 -19 7 -25 22 -36 77 -8 38 -27 101 -43 139 -58 136 -66 161 -78
245 -7 47 -17 101 -22 120 -5 19 -12 94 -15 165 -5 107 -3 132 9 142 13 11
195 23 225 15 6 -2 19 -19 27 -37z m141 -270 c4 -20 -3 -12 -20 24 -14 29 -25
61 -24 70 1 20 35 -54 44 -94z m3865 101 c0 -3 -4 -8 -10 -11 -5 -3 -10 -1
-10 4 0 6 5 11 10 11 6 0 10 -2 10 -4z m-4284 -185 c7 -73 18 -155 25 -181 11
-42 10 -52 -4 -74 -9 -14 -17 -33 -17 -42 0 -9 -19 -64 -42 -122 l-43 -105 -9
73 c-7 54 -6 78 3 92 9 14 9 18 1 13 -7 -5 -11 0 -9 11 1 11 0 26 -4 34 -15
42 -23 120 -13 130 8 8 8 13 -1 18 -14 9 -36 152 -31 211 3 42 6 47 58 78 69
41 70 41 86 -136z m4469 80 c7 -12 -12 -24 -25 -16 -11 7 -4 25 10 25 5 0 11
-4 15 -9z m110 -16 c0 -5 -15 -11 -32 -13 -25 -3 -33 1 -33 13 0 12 8 16 33
13 17 -2 32 -7 32 -13z m-3636 -92 c3 -2 -5 -14 -17 -26 -19 -19 -24 -20 -32
-7 -5 8 -10 23 -10 33 0 14 5 16 28 11 15 -4 29 -9 31 -11z m-113 -62 l25 -19
-36 -39 c-19 -21 -50 -66 -67 -100 -18 -34 -35 -60 -38 -58 -3 2 -6 -11 -7
-28 -1 -44 -22 -117 -33 -117 -5 0 -6 -7 -3 -17 4 -10 2 -14 -4 -10 -5 4 -19
0 -29 -8 -10 -8 -21 -15 -24 -15 -3 0 -5 37 -5 81 0 76 2 82 23 90 16 6 22 16
22 38 0 16 -4 33 -10 36 -18 11 -11 24 28 49 20 13 57 49 82 79 25 31 47 56
48 57 2 0 15 -9 28 -19z m1834 2 c0 -30 -23 -83 -36 -83 -8 0 -19 -11 -24 -25
-5 -14 -16 -25 -25 -25 -18 0 -18 4 -6 28 6 9 12 29 16 45 6 32 38 67 60 67 8
0 15 -3 15 -7z m1877 -48 c28 -19 21 -37 -21 -60 -56 -30 -100 12 -59 57 20
22 51 23 80 3z m-1639 -15 c183 -22 196 -25 187 -40 -4 -6 16 -10 52 -11 32
-1 82 -3 111 -5 41 -3 52 -1 52 11 0 12 17 15 98 15 113 0 164 -16 155 -50 -4
-15 0 -20 16 -20 20 0 95 -50 112 -74 4 -5 14 -6 23 -3 8 3 22 0 29 -8 8 -8
24 -11 36 -8 11 3 27 0 35 -6 7 -6 20 -9 28 -6 7 3 33 -1 56 -9 23 -9 48 -13
55 -11 6 3 25 1 40 -3 l29 -8 -29 -28 c-15 -16 -48 -38 -73 -49 -25 -11 -61
-31 -81 -44 -34 -22 -43 -23 -180 -22 -79 1 -196 -2 -259 -7 l-115 -10 37 -17
c29 -13 67 -17 168 -17 74 0 140 -5 151 -11 15 -7 24 -7 34 1 8 6 29 10 47 8
l33 -3 -33 -21 c-19 -12 -51 -43 -71 -70 l-37 -49 -149 1 c-180 2 -676 20
-810 30 -83 6 -155 5 -167 -2 -8 -5 -9 8 -5 47 9 77 36 151 58 156 10 3 15 11
13 18 -3 7 16 46 43 86 26 41 68 116 93 166 25 51 46 92 48 93 2 0 79 -9 170
-20z m-404 -6 c17 -6 23 -54 7 -54 -5 0 -13 -9 -16 -20 -4 -11 -11 -18 -16
-15 -5 4 -9 -1 -9 -9 0 -20 -83 -68 -110 -64 -30 4 -27 21 6 37 16 8 32 19 36
24 4 7 11 7 21 -2 10 -8 17 -9 22 -1 3 5 0 10 -8 10 -10 0 -13 7 -10 19 5 19
3 19 -43 5 -26 -8 -52 -13 -58 -12 -10 2 -81 -19 -98 -29 -4 -2 -3 -15 2 -29
9 -22 7 -27 -10 -31 -17 -5 -17 -7 -5 -20 8 -8 19 -11 25 -8 5 3 10 1 10 -6 0
-8 4 -8 15 1 23 19 25 9 4 -25 -11 -16 -19 -24 -19 -17 0 22 -65 14 -89 -12
-25 -27 -21 -76 8 -77 11 0 9 -3 -6 -9 -13 -5 -23 -15 -23 -22 0 -9 3 -9 10 2
5 8 10 10 10 4 0 -6 -7 -17 -15 -24 -8 -7 -15 -16 -15 -21 0 -5 7 -6 15 -3 9
4 15 0 15 -7 0 -11 2 -11 10 1 5 8 12 11 16 8 7 -8 -35 -58 -49 -58 -5 0 -17
10 -28 23 -12 15 -18 17 -19 8 0 -24 -30 -49 -50 -44 -11 3 -17 9 -14 14 3 5
1 9 -5 9 -5 0 -11 -6 -13 -12 -3 -9 -27 -13 -74 -13 -39 0 -73 -5 -79 -11 -5
-7 -22 -14 -37 -18 -25 -6 -28 -4 -28 18 0 84 49 212 86 227 13 4 24 14 24 21
-1 7 12 39 27 70 31 63 68 85 121 73 20 -4 33 -1 42 10 7 8 26 15 42 15 24 0
28 -3 19 -13 -10 -13 -6 -27 9 -27 4 0 13 14 20 31 12 29 16 31 51 25 29 -5
52 1 102 23 36 16 68 27 71 24 3 -4 6 -1 6 5 0 13 66 17 94 6z m1882 -48 c18
-18 18 -34 0 -52 -17 -16 -46 -8 -46 13 0 16 18 53 26 53 3 0 12 -6 20 -14z
m-2912 -12 c25 -10 19 -23 -20 -46 -22 -13 -37 -31 -40 -47 -3 -15 -32 -55
-63 -90 -54 -58 -59 -61 -64 -39 -5 17 4 37 31 77 20 29 46 68 57 87 13 22 28
34 41 34 12 0 24 7 28 15 6 17 8 17 30 9z m1090 -30 c25 -10 19 -34 -9 -34
-24 0 -34 18 -18 33 8 8 8 8 27 1z m1950 -16 c-7 -10 -74 -7 -74 4 0 5 18 8
39 6 22 -1 38 -5 35 -10z m-3914 -8 c0 -5 3 -9 8 -9 20 3 32 -2 32 -15 0 -29
-48 -29 -77 0 -20 20 -15 34 12 34 14 0 25 -4 25 -10z m-496 -94 c9 -30 18
-93 21 -140 5 -100 13 -138 27 -130 5 3 14 1 21 -4 11 -9 32 -13 152 -29 22
-3 48 -11 58 -18 14 -10 6 -12 -50 -14 -38 -1 -81 -2 -98 -3 -100 -5 -215 25
-235 61 -15 28 -12 141 4 173 8 14 20 43 26 65 24 70 41 104 50 98 5 -3 16
-30 24 -59z m2216 -86 c0 -5 -7 -10 -15 -10 -8 0 -15 5 -15 10 0 6 7 10 15 10
8 0 15 -4 15 -10z m-2609 -23 c-10 -9 -11 -8 -5 6 3 10 9 15 12 12 3 -3 0 -11
-7 -18z m2569 3 c0 -5 -5 -10 -11 -10 -5 0 -7 5 -4 10 3 6 8 10 11 10 2 0 4
-4 4 -10z m-2915 -22 c-4 -9 6 -13 32 -13 32 0 39 -4 41 -22 3 -19 6 -21 27
-11 12 5 29 21 36 34 15 29 34 26 35 -5 1 -13 -9 -29 -24 -39 -14 -9 -45 -37
-69 -61 -23 -24 -43 -40 -43 -36 0 5 -6 1 -13 -10 -8 -10 -19 -15 -25 -11 -12
7 -26 -29 -17 -44 3 -5 -1 -10 -9 -10 -9 0 -16 -5 -16 -11 0 -5 -4 -8 -9 -5
-5 4 -24 -6 -42 -21 -29 -25 -31 -25 -20 -5 6 12 15 22 19 22 16 0 33 41 23
54 -8 10 -2 31 24 81 22 41 33 75 30 86 -4 10 -3 23 0 29 9 14 25 12 20 -2z
m1703 -21 c0 -7 3 -24 6 -39 4 -19 2 -28 -6 -28 -9 0 -9 -3 2 -10 10 -6 5 -9
-18 -8 -18 1 -32 2 -32 4 0 13 14 33 20 29 4 -3 10 2 13 10 4 10 1 12 -10 8
-13 -5 -15 -2 -10 11 4 10 7 24 7 32 0 16 26 8 28 -9z m1367 -56 c-10 -40 -45
-57 -45 -21 0 29 21 59 38 53 9 -4 11 -14 7 -32z m-1325 13 c0 -8 -5 -12 -10
-9 -6 4 -8 11 -5 16 9 14 15 11 15 -7z m1190 6 c0 -5 -5 -10 -11 -10 -5 0 -7
5 -4 10 3 6 8 10 11 10 2 0 4 -4 4 -10z m-1023 -30 c-1 -12 -8 -20 -19 -20
-21 0 -22 4 -6 29 14 23 27 18 25 -9z m2643 10 c12 -8 11 -10 -7 -10 -12 0
-25 5 -28 10 -8 13 15 13 35 0z m-4380 -58 c-6 -34 -15 -56 -38 -90 -12 -18
-42 -4 -53 25 -5 13 -13 21 -19 18 -5 -3 -10 2 -10 13 0 12 16 26 46 41 25 13
48 30 51 37 4 10 9 12 18 4 8 -7 10 -22 5 -48z m1650 27 c0 -11 -4 -17 -10
-14 -5 3 -10 13 -10 21 0 8 5 14 10 14 6 0 10 -9 10 -21z m2794 5 c22 -9 20
-24 -3 -24 -21 0 -34 13 -24 24 8 7 8 7 27 0z m-2927 -45 c-9 -15 -13 -16 -19
-5 -12 22 1 49 18 35 10 -8 11 -15 1 -30z m1213 19 c0 7 4 12 8 12 5 0 9 -7 9
-15 0 -16 -7 -18 -31 -9 -9 3 -16 14 -16 23 1 14 3 13 15 -3 8 -11 15 -14 15
-8z m-1660 -18 c0 -5 9 -10 19 -10 42 0 29 -19 -16 -25 -27 -4 -72 -14 -100
-22 -47 -13 -55 -13 -75 1 -12 9 -18 16 -13 17 18 1 39 6 95 23 35 10 56 13
58 6 2 -5 8 -10 14 -10 6 0 8 7 4 15 -3 8 -1 15 4 15 6 0 10 -4 10 -10z
m-1537 -80 c-3 -12 0 -20 6 -20 7 0 9 -4 6 -10 -3 -5 -15 -10 -26 -10 -11 0
-18 -4 -15 -9 3 -5 -8 -14 -26 -20 -43 -15 -52 -14 -34 5 9 8 20 13 25 9 6 -3
15 5 22 17 7 13 11 23 9 23 -2 0 3 10 10 22 16 26 30 21 23 -7z m2630 23 c-7
-2 -21 -2 -30 0 -10 3 -4 5 12 5 17 0 24 -2 18 -5z m2542 -3 c3 -5 2 -10 -4
-10 -5 0 -13 5 -16 10 -3 6 -2 10 4 10 5 0 13 -4 16 -10z m-2410 -10 c3 -5 1
-10 -4 -10 -6 0 -11 5 -11 10 0 6 2 10 4 10 3 0 8 -4 11 -10z m-2675 -10 c0
-5 -5 -10 -11 -10 -5 0 -7 5 -4 10 3 6 8 10 11 10 2 0 4 -4 4 -10z m3230 -35
c-7 -8 -17 -15 -22 -15 -6 0 -5 7 2 15 7 8 17 15 22 15 6 0 5 -7 -2 -15z m629
-1 c63 -2 117 -7 120 -10 3 -4 -93 -4 -214 0 -121 3 -275 6 -342 6 -85 0 -123
4 -123 11 0 11 130 9 559 -7z m561 -19 c-10 -12 -25 -14 -64 -9 -80 10 -79 24
3 24 65 0 72 -2 61 -15z m-4040 -8 c0 -15 -71 -41 -80 -29 -3 4 -4 6 -2 5 2
-1 12 7 23 18 22 22 59 25 59 6z m500 3 c0 -5 -4 -10 -10 -10 -5 0 -10 5 -10
10 0 6 5 10 10 10 6 0 10 -4 10 -10z m1608 5 c-7 -7 -97 -9 -105 -2 -3 4 20 7
52 7 32 0 56 -2 53 -5z m2802 -9 c0 -15 -37 -32 -47 -22 -3 3 -3 12 0 21 8 19
47 20 47 1z m-5400 -34 c0 -1 -12 -14 -27 -27 -31 -26 -54 -12 -25 15 14 13
52 22 52 12z m5360 -13 c0 -9 -48 -29 -86 -35 -26 -4 -34 -2 -34 10 0 9 12 18
28 22 15 3 32 7 37 9 16 5 55 1 55 -6z m-4187 -16 c4 -3 19 -8 33 -9 14 -2 28
-5 30 -7 10 -10 -10 -38 -32 -43 -13 -3 -24 -15 -26 -26 -3 -21 -36 -37 -106
-53 -39 -8 -41 3 -6 40 14 15 27 37 30 48 7 38 57 71 77 50z m-333 -45 c0 -5
-4 -8 -10 -8 -5 0 -10 10 -10 23 0 18 2 19 10 7 5 -8 10 -18 10 -22z m3330 -8
c-14 -26 -37 -32 -43 -10 -6 24 10 39 34 33 14 -4 16 -9 9 -23z m-3195 10 c3
-5 1 -10 -4 -10 -6 0 -11 5 -11 10 0 6 2 10 4 10 3 0 8 -4 11 -10z m269 -145
c-4 -8 -8 -15 -10 -15 -2 0 -4 7 -4 15 0 8 4 15 10 15 5 0 7 -7 4 -15z m2362
-112 c-15 -4 -16 -7 -5 -14 11 -7 11 -9 -3 -9 -18 0 -23 11 -11 23 3 4 13 6
22 6 12 -1 11 -3 -3 -6z m182 -27 c3 -3 -9 -6 -26 -6 -18 0 -32 -4 -32 -10 0
-14 -27 -13 -36 1 -3 6 0 15 7 20 14 9 76 5 87 -5z m592 -17 c0 -5 -8 -12 -17
-15 -10 -3 -28 -11 -40 -16 -12 -6 -29 -8 -38 -4 -9 3 -13 2 -10 -4 3 -6 1
-10 -4 -10 -6 0 -14 0 -18 0 -16 0 -7 25 12 36 72 40 79 43 97 33 10 -5 18
-14 18 -20z m-2755 10 c-7 -11 -35 -12 -35 -1 0 4 9 8 20 9 11 1 18 -2 15 -8z
m-140 -19 c-3 -5 -11 -10 -16 -10 -6 0 -7 5 -4 10 3 6 11 10 16 10 6 0 7 -4 4
-10z m-398 -13 c17 0 16 -10 -1 -51 -17 -42 -30 -50 -56 -36 -15 8 -20 21 -20
49 0 46 6 52 39 44 14 -3 31 -6 38 -6z m2393 8 c0 -2 -18 -14 -40 -25 -22 -11
-40 -27 -40 -34 0 -8 -28 -28 -63 -44 -35 -17 -69 -37 -76 -46 -21 -25 -31
-19 -20 13 7 21 26 38 61 56 28 15 59 35 70 45 11 10 26 16 34 13 8 -3 14 0
14 5 0 6 8 13 18 15 25 7 42 8 42 2z m80 -9 c0 -11 -19 -15 -25 -6 -3 5 1 10
9 10 9 0 16 -2 16 -4z m1535 -6 c-3 -5 -12 -7 -20 -3 -21 7 -19 13 6 13 11 0
18 -4 14 -10z m118 -81 c4 -15 2 -19 -9 -15 -11 4 -12 2 -4 -14 7 -13 6 -22
-3 -32 -8 -7 -16 -19 -18 -25 -3 -9 -8 -9 -19 -2 -12 8 -12 12 -2 16 10 4 9 8
-5 19 -13 9 -14 13 -4 14 11 0 11 3 1 15 -12 15 -6 35 11 35 6 0 7 -4 4 -10
-3 -5 -1 -10 4 -10 6 0 11 7 11 15 0 23 27 18 33 -6z m-4913 -10 c0 -6 9 -9
20 -6 45 12 7 -59 -49 -91 -21 -12 -22 -12 -16 7 5 17 2 21 -14 21 -30 0 -26
20 12 52 34 30 47 34 47 17z m2290 2 c0 -12 -20 -25 -27 -18 -7 7 6 27 18 27
5 0 9 -4 9 -9z m-72 -48 c-2 -10 -10 -18 -18 -18 -8 0 -16 8 -18 18 -2 12 3
17 18 17 15 0 20 -5 18 -17z m-848 -13 c0 -11 -4 -20 -9 -20 -5 0 -17 -7 -25
-16 -15 -14 -16 -13 -16 14 0 17 6 33 13 35 25 11 37 6 37 -13z m680 -21 c0
-24 -12 -25 -26 -1 -10 15 -8 18 7 19 13 1 19 -5 19 -18z m40 -29 c0 -5 -5
-10 -11 -10 -5 0 -7 5 -4 10 3 6 8 10 11 10 2 0 4 -4 4 -10z m1960 -15 c-13
-16 -60 -21 -60 -7 0 14 7 18 41 20 28 2 30 0 19 -13z m-175 -15 c6 -19 -29
-80 -47 -80 -9 0 -105 -66 -129 -89 -38 -37 -60 -51 -79 -51 -32 0 -37 30 -10
50 21 15 22 20 11 34 -7 9 -10 16 -5 16 5 0 20 3 34 6 24 6 24 6 6 -8 -14 -11
-16 -17 -7 -22 19 -12 40 1 34 22 -5 22 53 62 92 62 22 0 75 38 75 54 0 3 -12
4 -27 0 l-28 -6 25 15 c35 21 48 20 55 -3z m905 -24 c0 -2 -7 -6 -15 -10 -8
-3 -15 -1 -15 4 0 6 7 10 15 10 8 0 15 -2 15 -4z m-154 -51 c-19 -14 -36 -12
-36 6 0 5 12 9 28 9 26 -1 26 -1 8 -15z m-503 -52 c-4 -10 -75 -53 -88 -53
-15 0 -1 19 17 23 12 4 19 9 15 13 -4 4 -2 13 4 20 14 17 59 15 52 -3z m82
-52 c7 -12 -1 -17 -44 -26 -23 -5 -31 -4 -27 4 4 6 16 11 27 11 10 0 19 5 19
10 0 13 17 13 25 1z m-1385 -20 c0 -5 -7 -11 -15 -15 -15 -5 -20 5 -8 17 9 10
23 9 23 -2z m1590 -1 c13 -8 12 -10 -4 -10 -10 0 -24 -6 -30 -14 -7 -8 -20
-11 -36 -6 l-25 6 30 16 c37 19 46 20 65 8z"/>
<path d="M2365 3875 c-18 -17 -25 -35 -25 -63 0 -105 139 -130 180 -33 26 65
-13 121 -85 121 -35 0 -52 -6 -70 -25z"/>
<path d="M1806 1374 c-7 -19 2 -37 15 -29 12 8 12 45 0 45 -5 0 -12 -7 -15
-16z"/>
<path d="M3735 1230 c-2 -4 21 -10 53 -14 128 -14 165 -23 179 -42 7 -10 11
-25 8 -33 -4 -11 -3 -12 10 -1 8 7 15 19 15 28 0 11 8 13 37 9 20 -4 39 -10
42 -14 7 -9 8 -9 177 -17 114 -6 122 -5 127 13 6 26 -9 31 -96 31 -40 1 -144
10 -232 21 -182 22 -313 30 -320 19z"/>
<path d="M1325 847 c-11 -12 -27 -31 -35 -41 -14 -18 -14 -19 7 -7 13 6 30 25
38 41 18 36 17 37 -10 7z"/>
<path d="M4202 176 c-36 -21 -37 -26 -3 -23 22 1 31 7 31 20 0 9 -1 17 -2 16
-2 -1 -13 -7 -26 -13z"/>
<path d="M4100 5739 c101 -81 143 -110 197 -138 71 -35 74 -36 67 -17 -5 12
34 87 78 149 l19 27 -24 0 c-19 0 -30 -13 -61 -75 -21 -41 -43 -75 -51 -75 -7
0 -46 34 -88 75 -70 71 -77 75 -118 75 l-44 -1 25 -20z"/>
<path d="M4745 5736 c15 -23 15 -25 -4 -35 -25 -14 -79 -108 -87 -152 -5 -33
-5 -33 11 -14 30 37 86 130 91 153 6 23 38 30 50 11 3 -6 21 -18 38 -26 17 -8
44 -21 59 -30 16 -8 31 -12 34 -9 4 3 4 8 2 9 -2 2 -34 29 -72 60 -54 46 -74
57 -102 57 -35 0 -35 0 -20 -24z"/>
<path d="M5193 5748 c-15 -19 -43 -75 -43 -88 0 -21 25 -9 68 32 34 34 45 40
52 29 7 -12 12 -12 34 3 24 15 30 14 27 -6 0 -5 8 -8 19 -8 27 0 36 3 33 13
-5 14 42 7 94 -15 53 -22 69 -48 39 -65 -31 -19 -64 -133 -38 -133 7 0 43 71
70 141 10 25 11 25 98 21 81 -4 88 -3 75 12 -7 8 -17 14 -21 11 -5 -3 -39 9
-77 27 -67 32 -70 32 -244 36 -137 3 -178 1 -186 -10z"/>
<path d="M4950 5620 c0 -5 9 -14 20 -20 22 -12 27 -1 8 18 -14 14 -28 16 -28
2z"/>
<path d="M4470 5513 c8 -3 34 -17 57 -30 25 -14 44 -20 47 -14 8 13 -66 51
-96 50 -15 0 -18 -3 -8 -6z"/>
<path d="M3332 5395 c28 -16 72 -10 46 6 -7 5 -26 9 -43 8 l-30 0 27 -14z"/>
<path d="M13 5353 c-13 -4 -19 -63 -7 -63 13 0 34 30 34 49 0 21 -5 24 -27 14z"/>
<path d="M1288 5329 c-55 -28 -75 -79 -32 -79 11 0 12 -4 4 -19 -34 -65 26
-37 63 29 29 51 35 90 15 90 -7 -1 -30 -10 -50 -21z"/>
<path d="M5355 5318 c-82 -4 -161 -13 -175 -18 -16 -6 14 -7 85 -2 169 9 222
7 370 -17 90 -14 125 -13 125 3 0 17 -22 26 -66 26 -19 0 -34 5 -34 10 0 12
-87 11 -305 -2z"/>
<path d="M5078 5293 c7 -3 16 -2 19 1 4 3 -2 6 -13 5 -11 0 -14 -3 -6 -6z"/>
<path d="M3140 5227 c0 -23 -7 -52 -15 -64 -14 -20 -14 -23 4 -33 23 -12 50
-13 52 -2 5 30 7 110 3 125 -3 9 -14 17 -25 17 -16 0 -19 -7 -19 -43z"/>
<path d="M5456 5244 c-9 -8 -16 -17 -16 -18 0 -14 -65 -328 -79 -381 -10 -38
-24 -104 -30 -145 -7 -41 -30 -154 -51 -250 -21 -96 -44 -204 -50 -240 -6 -36
-13 -73 -15 -82 -2 -10 1 -20 5 -23 5 -3 29 59 54 137 43 137 61 207 91 348 8
36 23 106 35 155 11 50 28 135 36 190 15 95 46 254 60 303 8 27 -16 31 -40 6z"/>
<path d="M1207 5143 c-4 -3 -7 -15 -7 -26 0 -16 3 -17 15 -7 8 7 15 19 15 26
0 15 -12 19 -23 7z"/>
<path d="M2815 5141 c-41 -7 -85 -30 -85 -43 0 -5 5 -8 10 -8 6 0 10 5 10 11
0 6 9 8 21 4 12 -4 31 -3 43 3 11 6 29 13 39 16 16 5 25 27 10 25 -5 -1 -26
-5 -48 -8z"/>
<path d="M2900 5140 c0 -5 9 -10 19 -10 11 0 23 5 26 10 4 6 -5 10 -19 10 -14
0 -26 -4 -26 -10z"/>
<path d="M1453 5106 c-45 -12 -88 -47 -96 -77 -4 -14 -2 -18 6 -11 31 22 73
46 86 48 16 3 71 55 56 53 -6 -1 -29 -7 -52 -13z"/>
<path d="M1100 5090 c0 -11 3 -20 8 -20 4 0 13 9 20 20 11 18 10 20 -8 20 -13
0 -20 -7 -20 -20z"/>
<path d="M964 5039 c-41 -32 -60 -57 -51 -66 7 -6 85 47 111 76 19 21 19 21
-1 21 -11 0 -38 -14 -59 -31z"/>
<path d="M1435 5018 c-22 -11 -45 -37 -45 -50 0 -4 10 -8 23 -8 21 0 77 42 77
58 0 12 -33 12 -55 0z"/>
<path d="M1196 4944 c-28 -33 -35 -49 -27 -57 8 -8 22 1 51 32 39 41 46 61 24
68 -5 2 -27 -17 -48 -43z"/>
<path d="M1403 4926 c-12 -11 -36 -33 -53 -48 -24 -22 -29 -33 -24 -53 3 -14
3 -33 -2 -42 -4 -10 -8 -20 -8 -23 -3 -15 -34 -49 -39 -43 -4 3 -7 -7 -7 -23
0 -33 -24 -74 -43 -74 -19 0 -46 -36 -38 -49 6 -9 15 -9 35 -1 38 14 39 13 19
-17 l-17 -26 29 7 c17 4 32 12 33 17 5 12 32 12 32 0 0 -6 -4 -13 -10 -16 -5
-3 -9 -25 -8 -49 2 -40 4 -43 23 -36 13 5 19 15 17 30 -3 33 33 78 63 78 18 0
38 13 65 43 22 24 40 47 40 52 0 7 -23 11 -50 7 -29 -3 -119 -54 -124 -69 -3
-9 -4 -7 -3 5 1 11 -4 28 -12 37 -7 10 -9 17 -3 17 6 0 13 -6 15 -12 3 -7 6
-3 6 10 1 12 5 22 11 22 5 0 7 -8 4 -17 -5 -16 -4 -16 6 0 9 14 9 22 1 30 -8
8 -4 18 16 39 14 15 29 44 32 65 4 26 12 39 25 41 13 3 16 0 11 -9 -5 -7 -4
-10 3 -5 6 3 14 2 17 -4 5 -8 11 -7 21 1 7 6 21 9 29 5 8 -3 15 -1 15 4 0 6 7
10 16 10 8 0 13 4 10 8 -2 4 9 14 25 21 16 7 26 17 23 23 -4 7 -9 6 -14 -2 -5
-8 -11 -7 -23 4 -19 19 -33 20 -43 4 -5 -8 -1 -9 12 -5 15 5 14 3 -3 -9 -13
-9 -23 -23 -23 -31 0 -9 -6 -13 -14 -10 -8 3 -17 1 -20 -6 -3 -8 -9 -7 -19 5
-8 10 -17 15 -20 11 -4 -3 -7 -1 -7 5 0 7 5 12 10 12 16 0 12 22 -7 36 -15 11
-16 16 -5 33 16 27 3 25 -25 -3z"/>
<path d="M1636 4893 c-3 -8 -2 -22 4 -31 5 -10 10 -12 10 -4 0 6 9 12 20 12
17 0 19 3 12 17 -13 21 -39 25 -46 6z"/>
<path d="M1186 4829 c-18 -14 -24 -25 -17 -32 6 -6 15 -5 25 6 9 8 21 17 28
20 9 3 10 8 2 16 -8 9 -17 6 -38 -10z"/>
<path d="M1502 4783 c2 -12 -9 -24 -35 -36 -20 -10 -35 -23 -31 -28 8 -14 31
-10 38 7 3 8 10 13 15 10 5 -3 14 0 19 7 13 15 12 57 -1 57 -4 0 -7 -8 -5 -17z"/>
<path d="M1545 4789 c-11 -17 1 -21 15 -4 8 9 8 15 2 15 -6 0 -14 -5 -17 -11z"/>
<path d="M1067 4742 c-10 -10 -14 -22 -11 -25 8 -8 64 24 64 35 0 15 -37 8
-53 -10z"/>
<path d="M916 4724 c-9 -9 -14 -19 -11 -22 3 -3 13 2 22 11 9 9 14 19 11 22
-3 3 -13 -2 -22 -11z"/>
<path d="M1559 4586 c-20 -7 -47 -22 -60 -34 -12 -12 -28 -22 -35 -22 -7 0
-22 -12 -34 -27 -12 -16 -24 -27 -26 -25 -2 1 -12 2 -22 2 -15 0 -18 -6 -14
-28 5 -39 -20 -60 -53 -42 -22 12 -31 8 -109 -44 -47 -31 -86 -60 -86 -65 0
-5 6 -14 14 -21 12 -9 30 -2 94 39 43 28 83 51 87 51 4 0 14 -8 21 -17 11 -15
16 -16 31 -5 10 6 29 18 41 24 39 20 95 76 87 87 -3 6 -1 11 5 11 6 0 8 10 5
23 -8 30 16 51 49 43 24 -6 38 4 49 36 9 25 -3 28 -44 14z m-119 -148 c-24
-19 -60 -24 -60 -8 0 6 3 10 8 10 4 0 21 12 37 26 27 23 30 24 34 8 2 -10 -7
-26 -19 -36z"/>
<path d="M1607 4525 c-15 -14 -27 -30 -27 -35 0 -13 68 31 74 48 9 21 -18 13
-47 -13z"/>
<path d="M1682 4541 c-9 -5 -15 -32 -16 -70 -3 -74 9 -79 60 -25 31 34 45 77
27 87 -20 11 -59 15 -71 8z"/>
<path d="M975 4490 c-3 -6 1 -7 9 -4 18 7 21 14 7 14 -6 0 -13 -4 -16 -10z"/>
<path d="M560 4438 c0 -18 7 -41 14 -51 13 -17 14 -17 18 0 6 27 -5 76 -19 81
-9 2 -13 -7 -13 -30z"/>
<path d="M1025 4400 c-4 -6 -31 -24 -60 -41 -39 -22 -61 -43 -80 -76 -30 -54
-31 -68 -7 -58 81 34 95 33 68 -7 -19 -26 -21 -48 -5 -48 15 0 149 142 143
152 -3 4 -5 23 -6 43 -1 19 -5 35 -9 35 -4 0 -14 3 -22 6 -8 3 -18 0 -22 -6z"/>
<path d="M1421 4352 c-11 -14 -19 -28 -17 -30 8 -8 46 10 41 19 -6 8 8 13 28
10 16 -2 6 17 -12 22 -13 3 -26 -4 -40 -21z"/>
<path d="M3332 4340 c-42 -10 -82 -47 -82 -76 0 -13 12 -32 27 -44 23 -18 35
-20 87 -14 75 8 94 18 107 52 12 32 -3 65 -38 81 -27 12 -52 13 -101 1z"/>
<path d="M2504 4319 c-41 -52 -7 -97 77 -105 61 -6 80 3 84 38 5 44 -23 67
-90 74 -45 5 -63 3 -71 -7z"/>
<path d="M1590 4313 c0 -6 -11 -8 -25 -5 -20 3 -25 0 -25 -15 0 -11 7 -20 15
-20 8 0 12 4 9 9 -3 4 2 8 10 8 17 0 31 18 22 27 -3 4 -6 2 -6 -4z"/>
<path d="M4332 4270 c0 -14 2 -19 5 -12 2 6 2 18 0 25 -3 6 -5 1 -5 -13z"/>
<path d="M4029 4259 c-24 -9 -35 -25 -53 -81 -4 -13 -16 -18 -48 -18 -24 -1
-63 -5 -88 -10 -25 -5 -135 -14 -245 -20 -426 -21 -446 -23 -461 -38 -8 -8
-14 -24 -13 -36 1 -11 -1 -28 -5 -37 -4 -8 -2 -29 5 -45 6 -16 17 -68 25 -116
24 -155 88 -260 189 -310 64 -32 182 -51 278 -45 154 9 256 62 321 166 40 65
56 120 80 267 22 133 36 184 59 216 17 23 19 34 11 69 -10 47 -17 52 -55 38z
m-125 -314 c0 -80 -4 -98 -30 -150 -39 -79 -100 -141 -156 -155 -23 -7 -48
-16 -55 -22 -8 -6 -19 -6 -32 1 -11 6 -53 11 -95 11 -41 0 -86 4 -101 10 -39
15 -103 69 -125 108 -33 54 -60 147 -60 202 l0 50 43 1 c114 2 225 9 352 22
77 8 167 14 200 13 l60 -1 -1 -90z"/>
<path d="M3611 3939 c-42 -9 -61 -28 -70 -70 -11 -49 5 -85 44 -103 51 -24 80
-20 110 16 23 27 26 39 22 75 -8 70 -41 96 -106 82z"/>
<path d="M1360 4198 c-25 -11 -47 -25 -48 -29 -2 -5 -7 -7 -12 -4 -5 3 -20 0
-35 -7 -20 -9 -26 -17 -22 -35 2 -13 -1 -23 -7 -23 -6 0 -20 -14 -31 -30 -11
-16 -23 -30 -27 -30 -5 0 -8 -7 -8 -16 0 -20 35 -10 70 20 14 11 27 22 29 24
2 1 5 10 6 20 2 31 36 72 59 71 11 0 15 -3 9 -6 -7 -2 -13 -13 -13 -24 0 -34
24 -99 37 -99 21 0 77 56 69 69 -4 6 -12 8 -18 5 -7 -5 -9 13 -6 55 2 33 2 61
-1 60 -3 0 -26 -10 -51 -21z"/>
<path d="M1460 4192 c-23 -19 -20 -49 3 -35 7 4 18 8 26 10 7 1 19 7 25 13 6
6 7 11 1 10 -21 -5 -36 0 -30 10 9 15 0 12 -25 -8z"/>
<path d="M1572 4155 c-42 -43 -38 -68 5 -31 28 23 50 66 35 66 -4 0 -22 -16
-40 -35z"/>
<path d="M1155 4079 c-10 -15 3 -25 16 -12 7 7 7 13 1 17 -6 3 -14 1 -17 -5z"/>
<path d="M1494 4027 c-27 -15 -88 -69 -99 -87 -6 -10 -4 -11 6 -4 8 5 22 7 32
6 9 -2 17 2 17 7 0 6 6 11 13 11 16 0 67 52 67 68 0 15 -9 15 -36 -1z"/>
<path d="M1668 3957 c-32 -18 -58 -38 -58 -44 0 -7 -4 -13 -10 -13 -5 0 -14
-9 -20 -20 -10 -19 -5 -18 47 9 76 39 121 76 108 90 -7 6 -29 -1 -67 -22z"/>
<path d="M1318 3919 c-28 -20 -38 -49 -18 -49 11 0 70 53 70 64 0 12 -25 5
-52 -15z"/>
<path d="M1332 3848 c5 -15 28 -23 28 -10 0 5 -7 13 -16 16 -10 4 -14 1 -12
-6z"/>
<path d="M5140 3839 c-30 -54 -61 -259 -40 -259 17 0 36 72 65 253 5 32 -10
36 -25 6z"/>
<path d="M1270 3814 c0 -14 3 -14 15 -4 8 7 15 14 15 16 0 2 -7 4 -15 4 -8 0
-15 -7 -15 -16z"/>
<path d="M1305 3766 c-49 -60 -70 -82 -90 -94 -30 -16 -13 -23 17 -8 15 8 29
11 32 8 4 -3 13 3 21 14 8 10 15 15 15 9 0 -5 9 5 21 24 11 18 19 45 17 59 -3
26 -3 26 -33 -12z"/>
<path d="M2927 3706 c-61 -17 -87 -41 -87 -81 0 -46 32 -82 79 -90 22 -4 41
-12 44 -18 2 -7 5 -64 6 -127 1 -63 5 -118 7 -122 3 -4 -23 -8 -58 -8 -107 0
-227 74 -248 154 -14 50 -72 44 -78 -8 -3 -20 2 -28 20 -35 13 -5 43 -30 68
-56 66 -69 126 -95 225 -95 163 0 262 33 359 121 28 25 59 48 69 52 23 8 31
31 23 62 -5 20 -13 25 -36 25 -31 0 -54 -27 -44 -53 15 -40 -128 -138 -223
-153 l-43 -7 1 54 c0 30 3 84 7 120 7 62 11 70 55 113 61 62 64 95 10 130 -49
32 -96 39 -156 22z"/>
<path d="M1465 3350 c-3 -5 1 -10 9 -10 9 0 16 5 16 10 0 6 -4 10 -9 10 -6 0
-13 -4 -16 -10z"/>
<path d="M1365 3261 c-6 -10 32 -41 50 -41 5 0 30 -16 55 -36 25 -20 73 -49
107 -64 34 -16 79 -42 100 -59 21 -16 52 -33 68 -37 17 -4 73 -27 125 -51 87
-40 92 -42 70 -17 -35 37 -95 67 -190 96 -19 6 -48 23 -65 40 -16 16 -61 44
-98 63 -37 19 -85 47 -105 63 -63 50 -103 64 -117 43z"/>
<path d="M5740 3221 c-14 -28 -12 -57 5 -71 13 -11 15 -6 15 39 0 55 -4 61
-20 32z"/>
<path d="M4725 3090 c-44 -4 -60 -9 -60 -20 0 -12 21 -16 105 -21 98 -6 369
-12 452 -10 40 1 70 23 62 46 -5 12 -45 14 -253 12 -135 -1 -273 -4 -306 -7z"/>
<path d="M1532 3015 c15 -15 198 -108 234 -119 23 -8 91 -43 150 -78 109 -65
203 -112 211 -104 9 9 -42 46 -105 77 -37 18 -87 45 -112 61 -24 15 -68 37
-97 48 -29 11 -102 42 -163 70 -102 47 -131 58 -118 45z"/>
<path d="M0 2766 l0 -204 30 -4 c32 -5 83 13 95 33 19 30 21 90 5 168 -14 70
-24 93 -64 147 -26 35 -51 64 -57 64 -5 0 -9 -83 -9 -204z"/>
<path d="M4140 2915 c-102 -29 -207 -57 -235 -64 -71 -16 -175 -62 -175 -76 0
-19 84 -2 218 44 124 42 305 95 359 106 38 8 46 16 29 31 -8 7 -64 -5 -196
-41z"/>
<path d="M1980 2920 c8 -5 20 -10 25 -10 6 0 3 5 -5 10 -8 5 -19 10 -25 10 -5
0 -3 -5 5 -10z"/>
<path d="M1690 2826 c0 -7 21 -21 46 -31 26 -10 76 -38 113 -63 104 -71 271
-156 283 -144 16 16 4 27 -90 77 -48 26 -109 63 -135 83 -47 34 -175 92 -203
92 -8 0 -14 -6 -14 -14z"/>
<path d="M2225 2794 c28 -20 75 -47 105 -61 75 -33 160 -75 190 -94 63 -40
141 -79 134 -67 -26 41 -172 128 -292 174 -35 13 -84 37 -108 54 -64 43 -90
38 -29 -6z"/>
<path d="M2187 2704 c-2 -14 -1 -42 4 -62 4 -21 13 -80 19 -132 16 -140 40
-292 50 -317 9 -21 196 -123 227 -123 8 0 52 -20 97 -45 79 -43 118 -52 144
-32 26 20 -3 327 -31 327 -5 0 -6 -21 -3 -47 12 -86 14 -263 4 -263 -5 0 -37
15 -71 34 -34 19 -81 39 -104 46 -24 6 -84 33 -135 59 l-93 48 -16 99 c-9 55
-24 126 -32 159 -18 67 -30 158 -29 222 0 47 -23 67 -31 27z"/>
<path d="M3425 2705 c-5 -2 -22 -6 -37 -9 -37 -8 -36 -26 1 -26 35 0 91 19 91
31 0 9 -34 11 -55 4z"/>
<path d="M3863 2641 c-87 -42 -265 -91 -331 -91 -23 0 -81 -13 -130 -30 -50
-16 -107 -30 -129 -30 -21 0 -79 -12 -128 -26 -50 -14 -104 -28 -122 -31 -18
-3 -38 -11 -44 -19 -9 -11 -6 -14 17 -15 54 -3 73 0 156 25 46 14 116 28 156
31 40 4 89 13 108 21 19 8 87 24 152 35 136 23 221 49 314 95 37 19 74 34 82
34 7 0 19 6 25 14 9 11 8 15 -5 20 -27 10 -37 7 -121 -33z"/>
<path d="M2307 2654 c-9 -10 4 -34 19 -34 8 0 14 9 14 20 0 19 -19 27 -33 14z"/>
<path d="M3115 2629 c-119 -10 -175 -26 -175 -50 0 -28 12 -30 101 -13 46 9
108 20 137 26 34 6 56 16 62 29 12 22 20 21 -125 8z"/>
<path d="M1830 2599 c0 -5 21 -19 48 -31 26 -11 84 -38 130 -59 80 -38 132
-49 132 -29 0 12 -39 33 -164 87 -97 42 -146 53 -146 32z"/>
<path d="M2340 2525 c0 -29 -4 -36 -25 -41 -29 -7 -28 -29 1 -29 21 0 21 -5
-2 -40 -16 -24 -15 -27 1 -45 24 -27 35 -25 35 4 0 53 19 34 26 -25 4 -40 14
-69 26 -81 14 -14 16 -23 8 -38 -14 -26 -13 -40 5 -40 19 0 52 36 77 85 37 72
52 69 62 -11 5 -43 3 -62 -9 -80 -21 -32 -19 -44 8 -44 27 0 36 7 65 44 29 37
28 50 -2 42 -33 -8 -40 6 -25 52 17 48 27 59 35 39 7 -20 34 -23 34 -4 0 15
-36 57 -50 57 -5 0 -12 -4 -15 -10 -9 -15 -25 -12 -25 5 0 8 4 15 9 15 6 0 22
16 37 36 25 33 26 36 11 52 -16 15 -19 15 -46 -1 -16 -9 -31 -17 -34 -17 -2 0
-10 20 -16 45 -10 39 -33 67 -45 54 -7 -7 15 -123 25 -135 5 -6 6 -20 2 -31
-8 -20 -58 -83 -66 -83 -8 0 -18 100 -11 111 4 7 10 6 19 -1 15 -12 35 -6 35
10 0 5 -10 18 -22 30 -17 15 -30 19 -54 14 -44 -8 -60 3 -38 27 22 24 12 69
-16 69 -16 0 -20 -7 -20 -35z"/>
<path d="M2823 2503 c-7 -3 -13 -16 -13 -29 0 -14 4 -22 10 -19 6 3 10 -2 11
-12 0 -11 3 -13 6 -5 3 7 -1 20 -8 28 -10 13 -10 17 1 24 17 10 11 19 -7 13z"/>
<path d="M1865 2440 c3 -5 10 -10 16 -10 5 0 9 5 9 10 0 6 -7 10 -16 10 -8 0
-12 -4 -9 -10z"/>
<path d="M4005 2429 c-16 -6 -60 -11 -97 -12 -49 -1 -72 -7 -85 -19 -11 -11
-13 -18 -5 -18 7 0 12 4 12 9 0 5 9 7 20 4 11 -3 27 -2 36 1 10 4 56 8 104 10
87 3 110 9 110 27 0 11 -55 10 -95 -2z"/>
<path d="M2837 2413 c-4 -6 0 -14 9 -17 9 -3 14 -12 11 -19 -2 -6 2 -24 10
-39 12 -25 11 -32 -8 -70 -30 -58 -37 -161 -15 -227 9 -27 16 -74 16 -103 0
-29 4 -68 9 -86 11 -37 62 -121 74 -122 17 0 19 35 3 91 -9 32 -16 77 -16 99
0 22 -7 57 -16 78 -28 67 -35 140 -19 196 8 27 15 64 15 82 0 36 -18 84 -32
84 -4 0 -8 6 -8 13 0 21 -26 52 -33 40z"/>
<path d="M2089 2355 c47 -28 55 -30 46 -15 -6 10 -70 40 -84 40 -3 0 14 -11
38 -25z"/>
<path d="M3650 2350 c-21 -7 -21 -8 -5 -9 11 0 27 4 35 9 18 11 5 11 -30 0z"/>
<path d="M3459 2316 c-2 -2 -51 -14 -109 -26 -57 -12 -127 -31 -155 -42 -27
-11 -81 -22 -120 -24 -38 -2 -78 -7 -88 -10 -21 -7 -18 -41 4 -35 8 2 48 8 89
11 86 9 141 22 202 50 24 11 60 20 80 20 39 0 88 18 88 32 0 4 3 7 8 7 18 -3
32 2 32 11 0 10 -22 14 -31 6z"/>
<path d="M4751 2296 c-19 -23 4 -28 24 -6 15 17 16 20 3 20 -9 0 -21 -6 -27
-14z"/>
<path d="M4055 2239 c-55 -16 -136 -36 -180 -45 -44 -9 -116 -26 -160 -39 -69
-20 -129 -31 -270 -52 -16 -2 -68 -15 -115 -28 -50 -13 -124 -25 -180 -27 -57
-3 -107 -11 -124 -20 -36 -19 -20 -31 24 -18 18 5 81 12 140 15 68 3 129 13
165 25 32 11 96 24 144 30 47 6 165 29 261 51 96 23 193 44 215 48 22 4 65 15
95 24 30 9 74 22 98 27 25 7 42 16 42 25 0 22 -41 18 -155 -16z"/>
<path d="M1840 2211 c0 -9 269 -131 289 -131 7 0 55 -20 107 -45 51 -25 103
-45 113 -45 11 0 33 -11 49 -25 33 -28 101 -59 152 -70 19 -4 55 -20 80 -35
74 -47 133 -70 147 -58 10 8 -6 20 -65 50 -42 22 -97 46 -122 55 -65 21 -109
42 -156 74 -23 16 -62 33 -86 38 -24 6 -64 21 -89 35 -24 14 -87 39 -139 56
-52 17 -106 39 -120 48 -14 9 -27 17 -30 18 -3 0 -25 10 -50 22 -47 23 -80 28
-80 13z"/>
<path d="M246 2153 c-6 -14 -5 -15 5 -6 7 7 10 15 7 18 -3 3 -9 -2 -12 -12z"/>
<path d="M3955 2054 c-66 -14 -144 -37 -173 -51 -29 -14 -56 -23 -59 -20 -2 3
-22 -1 -43 -8 -20 -7 -77 -18 -126 -24 -49 -6 -125 -22 -169 -36 -44 -14 -111
-30 -149 -36 -80 -13 -160 -44 -151 -59 4 -6 13 -7 23 -1 9 5 58 16 107 25 87
15 214 48 234 61 6 3 62 14 125 25 64 10 162 33 218 51 57 18 150 42 208 53
58 12 104 26 103 31 -3 17 -23 15 -148 -11z"/>
<path d="M1914 2035 c11 -8 27 -15 35 -15 8 0 45 -18 82 -41 67 -40 125 -64
347 -140 62 -21 132 -50 155 -63 39 -23 119 -37 132 -24 3 3 -16 11 -42 19
-26 7 -62 21 -78 31 -17 9 -116 47 -221 82 -105 36 -226 83 -270 105 -87 43
-175 72 -140 46z"/>
<path d="M4205 1981 c-49 -16 -119 -40 -155 -53 -36 -14 -101 -33 -145 -43
-44 -9 -123 -30 -175 -46 -52 -16 -128 -38 -167 -50 -46 -13 -73 -26 -73 -35
0 -25 63 -13 270 50 41 13 118 34 170 47 52 12 125 35 161 50 63 25 116 42
217 69 25 6 42 17 42 25 0 22 -42 18 -145 -14z"/>
<path d="M258 1992 c-11 -2 -18 -13 -18 -27 0 -19 4 -23 18 -18 22 8 42 23 42
33 0 11 -22 17 -42 12z"/>
<path d="M1902 1904 c2 -14 27 -27 94 -50 51 -17 108 -41 128 -53 20 -13 82
-36 138 -52 56 -16 124 -40 152 -54 76 -37 180 -75 203 -75 12 0 54 -11 95
-25 40 -14 87 -25 103 -25 25 1 19 6 -40 34 -39 18 -90 36 -114 40 -23 3 -54
14 -67 23 -31 20 -172 71 -329 119 -27 9 -88 33 -135 54 -47 21 -112 46 -145
55 -33 10 -66 20 -74 23 -9 3 -12 -1 -9 -14z"/>
<path d="M204 1900 c-25 -10 -35 -30 -28 -57 4 -14 -8 -34 -35 -63 -23 -24
-41 -45 -41 -47 0 -2 18 -3 40 -3 29 0 48 7 73 30 19 17 40 30 45 30 10 0 32
31 32 45 0 3 -12 4 -27 3 -26 -3 -28 -1 -26 35 3 39 1 41 -33 27z"/>
<path d="M506 1821 c-11 -12 -21 -19 -24 -17 -2 3 -21 -6 -42 -19 -21 -13 -40
-21 -43 -19 -3 3 -10 -3 -16 -15 -8 -14 -8 -22 -1 -26 6 -4 8 -15 5 -25 -4
-12 2 -24 17 -34 22 -16 22 -16 2 -16 -23 0 -54 -29 -54 -49 0 -7 -6 -11 -12
-8 -17 6 -102 -28 -138 -55 -23 -17 -32 -19 -44 -9 -11 9 -18 7 -35 -14 -17
-22 -18 -30 -8 -46 6 -10 19 -19 28 -19 12 0 18 -11 21 -35 3 -29 -1 -40 -27
-65 -17 -16 -36 -30 -42 -30 -6 0 -30 -21 -52 -47 -35 -42 -41 -54 -41 -96 l0
-48 24 18 c14 10 21 21 17 26 -23 24 34 127 61 111 6 -4 13 -2 17 3 3 5 31 22
61 37 30 16 64 37 76 47 11 10 30 19 41 19 21 0 53 24 53 39 0 4 16 13 35 21
19 8 35 16 35 20 0 3 16 12 35 19 40 14 88 54 78 64 -3 4 -2 7 4 7 5 0 15 11
21 25 10 21 9 27 -4 32 -8 3 -13 12 -10 19 3 9 -2 14 -14 14 -24 0 -25 11 -5
51 20 37 12 53 -18 36 -12 -6 -25 -16 -29 -22 -13 -18 -16 0 -4 35 6 19 16 34
21 34 13 -2 38 33 33 47 -2 6 -12 1 -22 -10z m-60 -136 c-8 -8 -23 -15 -33
-15 -17 1 -17 2 1 15 27 21 53 21 32 0z m-46 -123 c0 -18 -45 -51 -58 -43 -10
6 -7 13 15 29 30 23 43 27 43 14z m-84 -25 c-3 -33 -14 -47 -37 -47 -25 0 -24
9 4 42 27 34 36 35 33 5z m-96 -67 c0 -5 -2 -10 -4 -10 -3 0 -8 5 -11 10 -3 6
-1 10 4 10 6 0 11 -4 11 -10z"/>
<path d="M823 1793 c-15 -5 -17 -39 -4 -48 5 -3 16 8 24 25 15 30 10 36 -20
23z"/>
<path d="M251 1753 c0 -7 -10 -13 -21 -13 -11 0 -20 -5 -20 -11 0 -5 -17 -17
-37 -26 -69 -28 -91 -49 -95 -93 -4 -47 8 -51 42 -15 27 28 52 32 74 10 19
-20 28 -19 54 5 26 24 30 55 7 46 -10 -3 -18 1 -22 11 -4 9 -1 19 5 21 7 2 9
9 6 14 -4 6 -2 8 3 5 6 -4 16 0 23 8 8 9 8 15 2 15 -6 0 -13 8 -15 18 -3 9 -5
11 -6 5z"/>
<path d="M3177 1710 c-105 -20 -113 -23 -102 -39 9 -15 39 -14 99 3 28 8 78
19 110 23 33 4 61 14 64 21 5 17 -50 14 -171 -8z"/>
<path d="M850 1540 c0 -5 7 -10 15 -10 8 0 15 5 15 10 0 6 -7 10 -15 10 -8 0
-15 -4 -15 -10z"/>
<path d="M2320 1540 c0 -5 5 -10 10 -10 6 0 10 5 10 10 0 6 -4 10 -10 10 -5 0
-10 -4 -10 -10z"/>
<path d="M2297 1523 c-4 -3 -7 -11 -7 -17 0 -6 5 -5 12 2 6 6 9 14 7 17 -3 3
-9 2 -12 -2z"/>
<path d="M537 1483 c-27 -26 -34 -38 -25 -44 20 -13 66 21 70 53 3 15 2 28 -2
28 -3 0 -23 -16 -43 -37z"/>
<path d="M5735 1450 c3 -5 10 -10 16 -10 5 0 9 5 9 10 0 6 -7 10 -16 10 -8 0
-12 -4 -9 -10z"/>
<path d="M877 1295 c6 -17 25 -15 31 3 2 7 -5 12 -17 12 -14 0 -19 -5 -14 -15z"/>
<path d="M66 1200 c-11 -3 -15 -9 -10 -13 10 -6 42 9 34 16 -3 3 -14 1 -24 -3z"/>
<path d="M265 1200 c-3 -5 -1 -10 4 -10 6 0 11 5 11 10 0 6 -2 10 -4 10 -3 0
-8 -4 -11 -10z"/>
<path d="M537 739 c7 -7 15 -10 18 -7 3 3 -2 9 -12 12 -14 6 -15 5 -6 -5z"/>
<path d="M595 590 c-3 -5 -1 -10 4 -10 6 0 11 5 11 10 0 6 -2 10 -4 10 -3 0
-8 -4 -11 -10z"/>
<path d="M120 510 c-23 -12 -39 -15 -47 -9 -8 7 -19 -3 -36 -32 -22 -36 -23
-44 -11 -56 10 -10 19 -11 33 -3 28 15 59 14 43 -2 -16 -16 -15 -28 3 -28 21
0 19 -23 -4 -44 -11 -10 -28 -15 -45 -12 -15 3 -24 1 -21 -5 4 -5 1 -9 -4 -9
-16 0 -13 -37 3 -43 8 -3 17 1 21 10 4 13 8 14 17 5 17 -17 28 -15 22 3 -8 20
13 45 37 45 27 0 52 29 39 46 -9 10 -7 19 7 38 10 14 21 26 25 26 4 0 5 7 1
17 -5 13 -2 15 15 11 13 -4 27 1 37 12 15 16 14 18 -5 23 -13 3 -20 0 -20 -10
0 -8 -4 -12 -10 -8 -5 3 -6 13 -3 22 5 13 2 15 -14 11 -11 -3 -26 -2 -34 2 -8
5 -29 1 -49 -10z"/>
<path d="M350 490 c0 -5 5 -10 10 -10 6 0 10 5 10 10 0 6 -4 10 -10 10 -5 0
-10 -4 -10 -10z"/>
<path d="M4216 481 c-12 -5 -16 -10 -9 -14 11 -7 63 8 63 18 0 7 -31 5 -54 -4z"/>
<path d="M283 453 c-34 -23 -28 -37 7 -16 17 9 30 21 30 25 0 12 -12 9 -37 -9z"/>
<path d="M3820 410 c-11 -7 -12 -10 -2 -10 7 0 11 -4 8 -8 -3 -5 -7 -20 -10
-34 -3 -21 -1 -25 14 -21 46 12 79 73 35 65 -10 -2 -21 1 -24 7 -4 6 -12 7
-21 1z"/>
<path d="M3953 405 c-3 -9 -3 -19 1 -22 8 -9 56 14 56 27 0 16 -50 12 -57 -5z"/>
<path d="M4116 389 c-14 -11 -26 -18 -26 -15 0 4 -19 -3 -42 -15 -43 -22 -68
-46 -67 -64 0 -5 3 -4 6 3 5 13 63 17 63 4 0 -5 6 -9 13 -9 6 0 17 -2 22 -3
24 -6 35 2 35 23 0 14 13 35 30 50 17 15 30 32 30 37 0 17 -36 11 -64 -11z"/>
<path d="M3841 316 c-23 -8 -31 -15 -23 -20 7 -4 10 -11 8 -15 -3 -3 4 -7 14
-7 10 0 16 4 14 8 -3 4 2 8 10 8 9 0 16 9 16 20 0 11 -1 20 -2 19 -2 0 -19 -6
-37 -13z"/>
<path d="M4135 320 c-3 -5 -1 -10 4 -10 6 0 11 5 11 10 0 6 -2 10 -4 10 -3 0
-8 -4 -11 -10z"/>
<path d="M3703 313 c-23 -5 -40 -33 -20 -33 18 0 67 24 67 33 0 7 -9 7 -47 0z"/>
<path d="M3620 282 c0 -4 -9 -8 -21 -9 -11 -1 -36 -13 -54 -27 -19 -14 -38
-26 -44 -26 -5 0 -12 -4 -16 -9 -9 -15 82 19 96 35 6 8 19 14 29 14 10 0 23 7
30 15 10 12 10 15 -4 15 -9 0 -16 -4 -16 -8z"/>
<path d="M3942 278 c6 -18 48 -22 62 -7 8 9 7 11 -6 6 -10 -3 -20 -2 -23 3 -9
15 -37 12 -33 -2z"/>
<path d="M4030 251 c0 -5 -9 -13 -20 -16 -11 -4 -18 -11 -15 -16 3 -5 17 -2
31 7 25 17 32 34 14 34 -5 0 -10 -4 -10 -9z"/>
<path d="M750 238 c-19 -5 -39 -14 -44 -19 -6 -5 -18 -9 -28 -9 -10 0 -18 -7
-18 -15 0 -19 32 -19 73 1 l32 15 -25 -20 c-14 -11 -20 -21 -15 -22 42 -6 57
-4 71 13 14 14 15 21 5 31 -9 9 -14 9 -19 1 -5 -9 -11 -8 -20 2 -11 12 -9 14
8 14 11 0 20 5 20 10 0 6 -1 10 -2 9 -2 0 -19 -5 -38 -11z"/>
<path d="M17 226 c-12 -9 -17 -27 -17 -60 0 -25 2 -46 5 -46 3 0 24 19 46 41
39 39 40 42 23 52 -11 6 -21 10 -23 8 -2 -1 -7 2 -10 7 -4 7 -12 6 -24 -2z"/>
<path d="M3885 180 c-3 -6 1 -7 9 -4 18 7 21 14 7 14 -6 0 -13 -4 -16 -10z"/>
<path d="M3704 147 c-26 -18 -56 -47 -66 -63 -9 -16 -22 -37 -28 -46 -19 -32
9 -29 61 7 28 19 56 35 61 35 7 0 6 5 -1 14 -8 10 -5 19 14 40 26 28 32 46 16
46 -5 0 -30 -15 -57 -33z"/>
<path d="M206 153 c-9 -9 -8 -53 2 -53 12 1 38 24 44 40 4 11 -1 16 -17 18
-12 1 -25 -1 -29 -5z"/>
<path d="M288 125 c-10 -19 -14 -36 -9 -39 15 -10 50 6 66 30 15 23 15 25 -10
34 -15 6 -27 10 -28 10 -1 0 -10 -16 -19 -35z"/>
<path d="M3814 145 c-10 -8 -15 -15 -10 -15 6 0 1 -7 -10 -16 -10 -9 -3 -7 16
5 34 19 51 41 33 41 -5 0 -18 -7 -29 -15z"/>
<path d="M32 109 c-18 -17 -32 -40 -32 -53 0 -21 3 -20 40 15 22 21 40 43 40
48 0 22 -18 18 -48 -10z"/>
<path d="M505 130 c-3 -5 -1 -10 4 -10 6 0 11 5 11 10 0 6 -2 10 -4 10 -3 0
-8 -4 -11 -10z"/>
<path d="M3575 130 c-3 -5 -1 -10 4 -10 6 0 11 5 11 10 0 6 -2 10 -4 10 -3 0
-8 -4 -11 -10z"/>
<path d="M1137 20 c-16 -19 -16 -20 19 -20 29 0 35 3 30 16 -3 9 -6 18 -6 20
0 12 -28 1 -43 -16z"/>
<path d="M4155 15 l-30 -14 36 -1 c21 0 42 7 49 15 10 12 9 15 -6 14 -11 0
-32 -7 -49 -14z"/>
<path d="M7 3 c7 -2 19 -2 26 0 6 3 1 5 -13 5 -14 0 -19 -2 -13 -5z"/>
</g>
</svg>
